<svg width="1188" height="1500" viewBox="0 0 1188 1500" fill="none" xmlns="http://www.w3.org/2000/svg">
<g clip-path="url(#clip0_360_10)">
<path d="M740.056 575.099C779.308 535.847 842.948 535.842 882.2 575.099C921.451 614.351 921.451 677.995 882.2 717.242L665.074 934.368C625.817 973.624 562.178 973.619 522.931 934.368C483.674 895.111 483.674 831.476 522.931 792.224L740.056 575.099Z" fill="#FFD038"/>
<path d="M1016.41 520.773C1055.67 481.516 1119.31 481.512 1158.56 520.768C1197.81 560.02 1197.81 623.664 1158.56 662.916L665.074 1156.4C625.817 1195.66 562.178 1195.66 522.931 1156.4C483.674 1117.15 483.674 1053.51 522.931 1014.26L1016.41 520.773Z" fill="#F25A38"/>
<path d="M171.586 520.773C132.33 481.516 68.6899 481.512 29.4381 520.768C-9.81364 560.02 -9.81345 623.664 29.4432 662.916L522.926 1156.4C562.182 1195.66 625.822 1195.65 665.069 1156.4C704.325 1117.14 704.325 1053.51 665.069 1014.26L171.586 520.773Z" fill="#FFD038"/>
<path d="M435.926 563.099C396.674 523.847 333.034 523.842 293.783 563.099C254.531 602.351 254.531 665.995 293.783 705.242L522.924 934.383C562.181 973.645 625.815 973.64 665.067 934.383C704.324 895.127 704.324 831.492 665.067 792.241L435.926 563.099Z" fill="#0B7BB5"/>
<path d="M740.056 355.441C779.308 316.189 842.948 316.184 882.2 355.441C921.451 394.692 921.451 458.337 882.2 497.584L665.074 714.714C625.817 753.971 562.178 753.966 522.931 714.714C483.674 675.458 483.674 611.823 522.931 572.566L740.056 355.441Z" fill="#0B7BB5"/>
<path d="M435.926 343.441C396.674 304.189 333.034 304.184 293.783 343.441C254.531 382.692 254.531 446.337 293.783 485.584L522.924 714.73C562.181 753.992 625.815 753.982 665.067 714.73C704.324 675.474 704.324 611.839 665.067 572.587L435.926 343.441Z" fill="#F25A38"/>
<path d="M522.929 714.721C562.181 753.983 625.826 753.983 665.073 714.721C704.324 675.47 704.325 611.835 665.068 572.583L594.001 501.502L522.925 572.583C483.673 611.835 483.678 675.474 522.929 714.721Z" fill="#009FDF"/>
</g>
<defs>
<clipPath id="clip0_360_10">
<rect width="1188" height="1500" fill="white"/>
</clipPath>
</defs>
</svg>
