<svg width="516" height="650" viewBox="0 0 516 650" fill="none" xmlns="http://www.w3.org/2000/svg">
<g clip-path="url(#clip0_360_9)">
<path d="M288.905 96.6035C254.102 131.148 234.589 150.515 199.785 185.059" stroke="#FFD038" stroke-width="70" stroke-linecap="round"/>
<path d="M308.86 240.535C294.018 255.266 285.697 263.525 270.855 278.256" stroke="#0B7BB5" stroke-width="70" stroke-linecap="round"/>
<path d="M391.431 312.867C356.982 347.059 337.668 366.229 303.219 400.421" stroke="#F25A38" stroke-width="70" stroke-linecap="round"/>
<path d="M347.031 507.734C305.207 549.246 281.758 572.521 239.934 614.033" stroke="#0B7BB5" stroke-width="70" stroke-linecap="round"/>
<path d="M448.492 406.9C406.668 448.413 383.219 471.687 341.395 513.199" stroke="#FFD038" stroke-width="70" stroke-linecap="round"/>
<path d="M152.26 394.768C106.521 440.12 80.8762 465.548 35.1367 510.901" stroke="#FFD038" stroke-width="70" stroke-linecap="round"/>
<path d="M202.582 344.934C182.592 364.733 171.384 375.834 151.395 395.634" stroke="#0B7BB5" stroke-width="70" stroke-linecap="round"/>
<path d="M151.826 395.201C150.471 396.555 149.711 397.314 148.355 398.668" stroke="#CE4E2A" stroke-width="70" stroke-linecap="round"/>
<path d="M344.865 509.6C343.51 510.953 342.75 511.712 341.395 513.066" stroke="#CE4E2A" stroke-width="70" stroke-linecap="round"/>
<path d="M480.207 513.066C446.834 546.235 428.123 564.831 394.75 598" stroke="#F25A38" stroke-width="70" stroke-linecap="round"/>
<path d="M208.219 35.5332C194.159 49.4098 186.276 57.1899 172.215 71.0665" stroke="#F25A38" stroke-width="70" stroke-linecap="round"/>
</g>
<defs>
<clipPath id="clip0_360_9">
<rect width="515.343" height="650" fill="white"/>
</clipPath>
</defs>
</svg>
