<?xml version="1.0" encoding="UTF-8"?>
<svg id="Layer_1" data-name="Layer 1" xmlns="http://www.w3.org/2000/svg" viewBox="0 0 2645.03 2360.08">
  <defs>
    <style>
      .cls-1 {
        fill: #f58a25;
      }

      .cls-2 {
        fill: #f7d411;
      }

      .cls-3 {
        fill: #eb4536;
      }

      .cls-4 {
        fill: #34332e;
      }

      .cls-5 {
        fill: #f7d511;
      }

      .cls-6 {
        fill: #ad9731;
      }

      .cls-7 {
        fill: #f3b01c;
      }

      .cls-8 {
        fill: #bba330;
      }

      .cls-9 {
        fill: #be3c32;
      }

      .cls-10 {
        fill: #f3a320;
      }

      .cls-11 {
        fill: #ec4935;
      }

      .cls-12 {
        fill: #c8ae2e;
      }

      .cls-13 {
        fill: #ea4336;
      }

      .cls-14 {
        fill: #ed662e;
      }

      .cls-15 {
        fill: #eb4336;
      }

      .cls-16 {
        fill: #645a28;
      }

      .cls-17 {
        fill: #73672b;
      }

      .cls-18 {
        fill: #af3b32;
      }

      .cls-19 {
        fill: #f7d611;
      }

      .cls-20 {
        fill: #f8d511;
      }

      .cls-21 {
        fill: #817e7b;
      }

      .cls-22 {
        fill: #55534e;
      }

      .cls-23 {
        fill: #eb4735;
      }
    </style>
  </defs>
  <g>
    <path class="cls-4" d="m1399.62,79.48h-33.49v52.75c33.89-.61,66.97,1.31,99.75,8.37,3.73-18.86,7.46-37.12,11.2-55.88-9.99-2.02-19.97-4.14-30.06-6.15,3.43-20.27,6.76-40.04,10.09-59.71.81-4.84,1.61-9.68,2.02-14.63.3-3.23,1.82-3.43,4.34-2.93,17.25,3.33,34.5,6.66,51.74,9.99,14.12,2.72,28.24,5.65,42.36,8.37,16.34,3.23,32.68,6.35,49.02,9.58,1.41.3,2.93,1.11,4.34,1.01,5.14-.2,4.84,2.72,4.03,6.25-2.22,9.68-4.54,19.26-6.76,28.95-3.03,12.81-6.05,25.62-8.98,38.43-.81,3.33-1.71,4.44-5.75,3.43-9.88-2.52-20.07-4.03-30.66-6.05-3.63,18.66-7.36,37.52-10.79,56.38-.2,1.11,1.41,3.33,2.52,3.63,20.88,5.95,41.96,11.4,62.84,17.55,10.29,3.03,20.27,7.06,31.07,10.79,3.43-7.97,6.86-16.24,10.39-24.51,3.83-9.08,7.56-18.26,11.7-27.13,1.82-3.93.71-5.55-3.03-7.06-6.86-2.72-13.52-5.75-20.68-8.88,2.93-7.36,5.85-14.42,8.67-21.48,6.35-15.84,12.71-31.67,18.96-47.61,1.11-2.82,2.02-4.14,5.45-2.72,47.1,20.37,94.21,40.55,141.41,60.82.1.1.2.2.61.81-10.99,23.4-21.99,46.9-33.28,71.01-9.28-3.93-18.66-7.56-27.64-11.9-4.84-2.42-6.66-1.31-8.88,3.43-20.37,44.18-41.05,88.25-61.73,132.33-1.01,2.22-1.61,3.83,0,6.25,10.49,15.33,4.03,38.63-18.76,40.95-1.51.1-3.53,1.21-4.03,2.42-11.6,24.71-23,49.42-34.39,74.23-.2.4-.2.91-.71,2.52,54.06,32.38,108.33,64.96,162.99,97.74.2-.81.2-.2,0,.1-31.47,40.24-53.56,85.53-71.81,132.94-9.48,24.71-17.35,50.03-23.4,75.75-4.34,18.16-7.36,36.71-10.29,55.17-2.32,15.33-4.24,30.86-5.04,46.3-1.31,25.01-2.12,50.13-1.92,75.24.1,15.33,2.02,30.76,3.83,46.09,2.22,18.46,4.74,36.92,8.17,55.17,3.03,15.94,7.06,31.67,11.4,47.2,4.44,16.24,8.67,32.68,14.93,48.31,10.39,25.92,21.38,51.64,33.99,76.45,10.49,20.78,23.3,40.24,35.4,60.11,4.03,6.66,3.63,13.52,1.82,20.27-4.44,15.94-14.12,29.05-24.61,41.56-26.73,31.87-60.22,53.66-98.85,68.49-34.39,13.21-69.6,23.5-105,33.08-45.89,12.41-91.68,25.01-135.46,44.08-31.97,13.92-58.9,34.29-83.51,58.5-7.36,7.26-14.73,14.73-23.4,23.4-9.08-9.68-17.85-19.26-26.93-28.54-30.26-30.96-67.07-51.24-107.82-64.96-16.24-5.45-32.38-11.4-48.72-16.44-16.54-5.04-33.39-9.18-50.13-13.82-15.53-4.34-31.17-8.47-46.6-13.21-17.45-5.35-34.7-10.99-51.94-16.94-52.55-18.16-97.23-46.9-127.59-95.01-5.85-9.28-11.3-19.06-10.49-30.66.2-3.13,1.31-6.56,3.03-9.08,21.58-31.87,40.14-65.46,54.67-100.96,8.88-21.69,16.94-43.88,23.8-66.37,6.76-22.29,12-45.09,16.94-67.78,3.23-14.73,5.35-29.75,7.06-44.68,1.92-16.84,3.23-33.69,4.03-50.53.81-17.15,1.41-34.5.91-51.64-.4-15.84-2.32-31.67-3.93-47.51-1.21-12.2-2.32-24.31-4.24-36.41-2.12-13.11-4.84-26.22-7.77-39.24-9.88-42.56-23.5-83.92-42.06-123.56-15.03-32.07-31.97-63.04-54.26-90.78-.2-.2-.2-.61,0,0,54.57-32.68,108.93-65.36,163.5-98.04-9.78-21.18-19.16-41.35-28.44-61.53-2.22-4.74-4.44-9.38-6.46-14.12-1.01-2.52-2.42-3.23-5.24-3.43-12.81-.5-24.91-13.31-23.8-25.92.4-5.04,3.63-9.78,5.45-14.73.61-1.61,1.11-3.93.5-5.35-21.28-45.99-42.77-91.89-64.25-137.78-.1-.3-.4-.5-.91-1.21-10.89,4.64-21.89,9.28-33.28,14.22-5.95-12.51-11.7-24.91-17.55-37.32-4.54-9.68-9.08-19.37-13.62-29.05-.61-1.31-1.61-2.32-2.52-3.53v-2.02c1.41-.4,2.93-.81,4.24-1.31,21.18-9.08,42.36-18.26,63.54-27.33,25.92-11.2,51.84-22.29,78.27-33.59,9.78,24.51,19.57,48.82,29.35,73.33-8.78,3.83-17.05,7.46-25.62,11.2,8.17,19.26,16.14,37.92,24.11,56.68,4.14-1.61,7.56-3.23,11.2-4.34,27.03-8.07,54.06-16.14,81.09-24.01,3.23-.91,4.44-2.22,3.73-5.55-2.02-9.68-3.93-19.47-5.95-29.15-1.71-8.47-3.53-16.94-5.24-25.62-10.99,2.12-21.58,4.14-32.07,6.35-2.62.61-3.53.1-4.14-2.42-4.03-18.46-8.27-36.81-12.41-55.27-1.41-6.25-2.72-12.41-4.14-18.86,52.45-10.19,104.09-20.17,156.03-30.16,4.44,26.53,8.67,52.05,13.01,77.87-8.88,1.82-17.25,3.73-25.72,5.04-3.63.61-4.54,1.82-3.73,5.14,1.41,6.56,2.62,13.11,4.03,19.67,2.12,10.59,4.34,21.18,6.56,32.18,32.88-7.06,65.76-9.88,99.55-8.17v-53.36h-33.59c-.3-.3-.61-.5-.91-.81-.4-2.12-1.11-4.14-1.11-6.25-.4-17.35-.71-34.7-1.11-52.05-.2-6.76-.61-13.62-1.01-20.37h2.02c1.92.3,3.73.91,5.65.91,51.44.1,102.98.1,154.42.1-.71,22.69-1.31,45.49-2.02,68.18-.1,3.13-.71,6.25-1.01,9.28.1.5-.2.81-.5,1.01h0Zm167.13,368.35c13.52-6.25,27.03-12.61,40.55-18.86-2.12-2.02-3.63-2.82-5.14-3.43-53.86-21.18-109.13-37.52-166.02-48.41-35.71-6.86-71.81-10.69-108.23-11.09-14.32-.2-28.64.81-42.87,2.02-17.15,1.41-34.39,2.72-51.44,5.35-47.3,7.26-93.5,18.86-138.79,33.89-18.86,6.25-37.52,13.21-56.28,19.77-.1.61-.1,1.21-.2,1.82,13.41,6.35,26.83,12.61,40.35,18.96,9.68,3.93,19.26,8.17,29.15,11.6,11.9,4.14,23.9,7.97,36.11,11.5,10.69,3.03,21.48,5.65,32.28,8.17,8.57,2.02,17.25,4.14,26.02,5.55,15.33,2.42,30.76,4.44,46.2,6.25,14.02,1.61,27.94,3.53,41.96,3.83,20.07.4,40.14-.2,60.22-.91,14.42-.5,28.75-1.61,43.17-3.03,14.42-1.31,29.05-2.32,43.27-5.24,25.22-5.24,50.43-10.99,75.24-18.05,18.26-5.14,36.21-12.91,54.47-19.67h0Zm-258.71-220.59c-.4,0-.71-.1-1.11-.1-1.92.3-3.93.71-5.85.81-12,.4-24.11.2-36.01,1.31-23.3,2.12-46.7,4.54-69.9,7.77-47.2,6.46-93.5,17.05-138.69,32.38-26.22,8.88-52.05,18.76-74.94,34.8-6.46,4.54-12.1,10.59-17.25,16.64-3.53,4.14-3.93,9.38-.91,14.52,3.03,5.04,7.36,7.06,13.11,6.66,2.42-.2,4.94-.4,7.46-.71,12.51,27.03,24.91,53.86,37.42,80.79,1.82-.61,2.82-1.11,3.93-1.51,31.37-11.09,62.43-23.3,94.31-32.98,60.72-18.56,122.75-30.56,186.39-32.78.4,0,.71-.1,1.11-.1h33.18c.4,0,.71.1,1.11.1,31.77.81,63.14,4.74,94.31,10.49,58.5,10.79,115.19,27.54,170.56,49.32,6.05,2.32,11.9,4.94,18.16,7.46,12.61-27.33,25.11-54.16,37.42-80.89,2.62.3,4.74.5,6.86.71,6.05.5,10.89-1.51,13.82-7.06,2.93-5.45,1.82-10.49-1.61-15.13-2.62-3.43-5.55-6.76-8.78-9.58-12.31-10.69-26.63-18.05-41.35-24.51-64.35-28.24-132.23-42.97-201.62-51.54-21.69-2.72-43.57-4.54-65.36-5.75-18.56-1.21-37.22-.91-55.78-1.11h0Zm47.51-82.1c-.1-2.62-.1-5.35-.2-7.97-.3-8.07-.71-16.14-1.01-24.21v-44.28c9.99,0,20.07,0,30.06-.1,1.71,0,3.43-.71,5.04-1.11.71-18.26,1.31-36.51,2.02-54.97h-138.18c.81,18.56,1.51,36.71,2.32,54.87,1.71.4,3.33,1.11,5.04,1.11,9.99.1,19.97.1,29.96.1v55.37c-.3,5.24-.81,10.39-.71,15.53,0,3.33-.81,5.04-4.34,4.74-38.73-.91-77.26-.2-115.08,10.49-5.45-27.03-10.59-53.15-15.94-79.48,10.39-2.02,20.27-4.03,30.56-6.05-3.13-18.46-6.15-36.61-9.28-54.97-44.48,8.67-88.56,17.15-132.53,25.72,4.24,18.26,8.27,36.01,12.51,54.26,12.1-2.22,23.8-4.44,35.81-6.76,5.35,27.33,10.69,54.06,15.94,80.89-17.55,4.74-34.7,9.08-51.64,14.12-21.79,6.56-44.18,11.5-64.15,23.8-11.2-26.43-22.39-52.85-33.79-79.58,8.88-3.83,17.25-7.46,25.82-11.2-6.96-17.45-13.82-34.39-20.78-51.74-41.66,17.85-82.71,35.5-123.96,53.26,7.97,17.05,15.84,33.69,23.7,50.43,11.4-4.84,22.29-9.48,33.59-14.32,21.99,47,43.77,93.6,65.36,139.9,11.8-6.86,22.9-14.12,34.7-20.07,40.85-20.37,84.32-33.49,128.8-43.17,26.22-5.65,52.95-9.38,79.48-13.21,18.05-2.62,36.21-4.44,54.36-5.95,15.23-1.31,30.66-1.61,45.99-2.42h42.36c10.79.71,21.48,1.41,32.28,2.12,12,.71,24.01.81,35.91,2.32,26.02,3.33,52.15,6.56,77.97,11.2,35.81,6.46,70.91,15.94,105.2,27.94,27.23,9.58,53.86,20.37,77.87,37.02,2.22,1.51,4.54,3.13,6.96,4.84,21.99-47.1,43.88-93.8,65.76-140.7,11.5,4.94,22.49,9.58,33.59,14.32,7.97-17.05,15.73-33.59,23.7-50.43-41.35-17.75-82.51-35.4-124.06-53.26-6.96,17.55-13.82,34.5-20.68,51.74,8.78,3.83,17.15,7.46,25.82,11.3-11.4,26.83-22.59,53.15-33.89,79.78-13.62-9.48-28.85-13.62-43.88-18.05-22.79-6.76-45.79-12.81-68.69-19.16-1.92-.5-3.73-.2-3.03-3.63,3.13-14.02,5.75-28.24,8.57-42.36,2.32-11.9,4.74-23.9,7.06-36.01,12.2,2.32,23.9,4.54,35.81,6.76,4.24-18.46,8.27-36.21,12.41-54.26-44.38-8.57-88.25-17.15-132.43-25.72-3.13,18.46-6.25,36.61-9.38,54.97,8.47,1.71,16.64,3.53,24.91,4.84,4.54.71,5.75,2.32,4.74,6.96-3.13,14.42-5.85,28.95-8.78,43.37-2.02,9.99-4.03,19.97-5.85,28.54-23.3-3.03-45.89-5.95-68.59-8.78h-41.35c-3.23.71-6.46,1.01-9.78,1.31h0Zm-382.07,775.33c-1.31,15.03-2.42,30.06-4.14,44.98-1.61,14.93-3.33,29.86-5.95,44.68-15.53,85.43-45.89,165.21-93.8,237.73-7.67,11.5-7.06,20.48-.81,30.96.81,1.41,1.61,2.93,2.52,4.34,18.96,30.26,44.28,54.06,75.65,70.6,39.03,20.68,81.19,32.88,123.56,44.48,41.66,11.4,83.62,21.79,123.96,37.32,35.6,13.62,69.6,29.96,97.64,56.58,10.19,9.68,20.37,19.26,31.67,29.86,4.64-5.14,9.08-10.49,14.02-15.33,23.2-22.59,48.11-42.56,77.87-56.28,39.44-18.16,80.69-30.86,122.35-42.16,41.05-11.2,82.1-22.09,121.94-37.12,38.33-14.42,72.42-35,98.85-66.77,9.68-11.6,18.86-23.7,22.9-38.63.81-2.93.71-7.16-.91-9.48-35.6-52.75-62.13-109.84-80.39-170.76-7.16-23.8-12.31-48.31-17.75-72.62-2.72-12.1-4.24-24.61-5.95-36.92-1.51-10.89-3.13-21.69-3.93-32.68-.91-11.3-.91-22.69-1.31-33.99v-36.31c1.11-17.35,1.71-34.8,3.53-52.15,1.61-15.84,4.03-31.57,6.76-47.2,12.81-72.12,36.71-140.2,73.43-203.64,7.16-12.41,15.13-24.41,22.79-36.61-.2-.1-.4-.4-.61-.61-52.55-31.67-105.1-63.34-157.55-95.11-2.32-1.41-4.03-1.31-6.35,0-26.02,15.13-53.76,26.43-82.2,36.11-46.3,15.84-94.21,24.51-142.62,30.06-14.73,1.71-29.65,1.51-44.48,2.22h-44.38c-8.67-.4-17.35-.61-25.92-1.21-10.69-.81-21.38-1.82-32.07-2.93-25.42-2.82-50.63-7.06-75.55-13.01-46.6-11.2-91.58-26.73-133.34-50.63-3.23-1.82-5.35-1.82-8.47.1-44.18,27.13-88.36,54.06-132.63,80.99-8.07,4.94-16.54,9.38-24.91,14.22,16.04,22.29,29.45,45.69,41.45,69.9,26.83,54.37,45.39,111.55,55.68,171.26,3.93,22.49,6.05,45.39,8.27,68.08,1.11,11.3.91,22.69,1.21,34.09,0,14.52,0,29.05,0,43.57h0Z"/>
    <path class="cls-21" d="m1403.56,1.21c-51.44,0-102.98-.1-154.42-.1-1.92,0-3.73-.61-5.65-.91h160.17c0,.3-.1.61-.1,1.01Z"/>
    <path class="cls-22" d="m1399.62,79.48c.3-.3.61-.5.91-.81-.3.3-.61.61-.91.81Z"/>
    <path class="cls-19" d="m1344.25,506.23c14.83-.71,29.75-.61,44.48-2.22,48.41-5.55,96.32-14.22,142.62-30.06,28.44-9.68,56.18-20.98,82.2-36.11,2.32-1.31,3.93-1.41,6.35,0,52.45,31.77,105,63.44,157.55,95.11.3.2.5.4.61.61-7.67,12.2-15.63,24.21-22.79,36.61-36.71,63.34-60.72,131.42-73.43,203.54-2.82,15.63-5.14,31.37-6.76,47.2-1.71,17.35-2.42,34.8-3.53,52.15-.3,9.18-.61,18.36-.81,27.43,0,2.93.5,5.85.81,8.88.4,11.3.4,22.69,1.31,33.99.81,10.89,2.42,21.79,3.93,32.68,1.82,12.31,3.23,24.81,5.95,36.92,5.45,24.31,10.69,48.72,17.75,72.62,18.16,60.92,44.78,118.01,80.39,170.76,1.61,2.32,1.61,6.56.91,9.48-4.03,14.93-13.21,27.03-22.9,38.63-26.43,31.87-60.52,52.35-98.85,66.77-39.84,15.03-80.99,25.92-121.94,37.12-41.76,11.4-82.91,24.11-122.35,42.16-29.75,13.72-54.67,33.69-77.87,56.28-4.94,4.84-9.28,10.19-14.02,15.33-11.3-10.59-21.58-20.17-31.67-29.86-28.04-26.73-62.03-42.97-97.64-56.58-40.45-15.53-82.4-25.92-123.96-37.32-42.36-11.6-84.62-23.8-123.56-44.48-31.37-16.64-56.79-40.35-75.65-70.6-.91-1.41-1.61-2.93-2.52-4.34-6.25-10.49-6.86-19.37.81-30.96,47.91-72.52,78.27-152.3,93.8-237.73,2.62-14.73,4.34-29.75,5.95-44.68,1.61-14.93,2.72-30.06,4.14-44.98.3-14.12.61-28.14.81-42.26,0-.4-.5-.81-.81-1.21-.4-11.4-.1-22.79-1.21-34.09-2.32-22.69-4.44-45.59-8.27-68.08-10.29-59.71-28.85-116.9-55.68-171.26-12-24.21-25.42-47.61-41.45-69.9,8.37-4.74,16.84-9.28,24.91-14.22,44.28-26.93,88.46-53.86,132.63-80.89,3.13-1.92,5.35-1.92,8.47-.1,41.76,23.9,86.74,39.44,133.34,50.63,24.91,5.95,50.13,10.29,75.55,13.01,10.69,1.21,21.38,2.12,32.07,2.93,8.67.61,17.25.81,25.92,1.21,1.11.3,2.22.81,3.33.81,9.68.1,19.47.2,29.15.1,4.03-.2,7.97-.71,11.9-1.01h0Zm-312.17,383.08c-1.71,26.33-3.53,52.65-5.24,79.28h591.26c0-4.94.3-9.78,0-14.52-1.41-18.76-4.03-37.42-4.34-56.18-.4-26.93.2-53.96,1.71-80.89,2.22-37.72,8.78-74.84,18.05-111.45,13.01-51.04,31.27-100.16,57.79-145.85,1.41-2.42,2.82-4.84,4.14-7.16-.81-.81-1.11-1.21-1.51-1.41-27.74-17.65-55.47-35.3-83.41-52.75-1.61-1.01-4.54-1.01-6.46-.3-16.54,5.45-32.88,11.6-49.42,16.84-69.49,22.09-140.8,34.39-213.53,37.42-26.73,1.11-53.56-.5-80.29-1.82-34.39-1.71-68.28-6.86-101.97-14.22-40.55-8.88-80.08-20.68-117.91-38.13-1.71-.81-4.64-.5-6.25.5-17.85,10.99-35.5,22.29-53.26,33.49-10.49,6.66-20.88,13.31-31.17,19.87,53.56,93.1,78.47,193.45,81.8,299.76v37.52h0Zm-6.05,99.75c-.3,1.61-.81,3.03-.91,4.44-3.43,36.01-10.09,71.31-19.37,106.21-13.01,48.92-31.17,95.72-59.21,138.08-6.46,9.88-6.56,18.66-.3,27.43,5.95,8.27,12.51,16.34,20.17,22.9,25.52,21.89,54.67,37.82,86.84,47.51,41.86,12.61,84.02,24.11,125.98,36.51,31.97,9.48,63.75,20.07,92.49,37.42,16.04,9.68,31.07,21.08,46.3,32.07,3.53,2.52,5.75,2.82,9.48.2,16.14-11.09,32.28-22.29,49.12-32.48,25.01-15.13,52.35-24.91,80.19-33.28,36.92-11.09,73.93-21.69,110.95-32.28,36.31-10.49,71.01-24.51,101.67-47.2,11.9-8.88,23.4-18.26,30.76-31.37,4.24-7.56,6.35-15.63,1.01-23.8-42.97-65.96-64.65-139.49-76.66-216.35-1.82-11.9-3.13-23.8-4.74-36.01h-593.78Z"/>
    <path class="cls-5" d="m1304.91,208.68c-15.33.81-30.66,1.11-45.99,2.42-18.16,1.51-36.31,3.33-54.36,5.95-26.63,3.93-53.26,7.56-79.48,13.21-44.38,9.68-87.85,22.79-128.7,43.17-11.8,5.85-22.79,13.11-34.7,20.07-21.58-46.3-43.37-92.89-65.36-139.9-11.3,4.84-22.19,9.48-33.59,14.32-7.87-16.74-15.73-33.39-23.7-50.43,41.35-17.75,82.3-35.4,123.96-53.26,6.96,17.25,13.82,34.29,20.78,51.74-8.57,3.73-16.94,7.36-25.82,11.2,11.3,26.73,22.59,53.15,33.79,79.58,20.07-12.41,42.46-17.35,64.15-23.8,16.94-5.04,34.19-9.38,51.64-14.12-5.24-26.83-10.59-53.56-15.94-80.89-12,2.22-23.7,4.44-35.81,6.76-4.24-18.26-8.27-36.01-12.51-54.26,43.98-8.57,88.05-17.05,132.53-25.72,3.13,18.46,6.15,36.51,9.28,54.97-10.29,2.02-20.17,3.93-30.56,6.05,5.24,26.33,10.49,52.45,15.94,79.48,37.82-10.79,76.45-11.5,115.08-10.49,1.51.3,3.03.71,5.04,1.11v-76.76c-1.51-.3-2.93-1.01-4.44-1.01-10.19-.1-20.37-.1-30.56-.2-.81-18.16-1.51-36.31-2.32-54.87h138.18c-.71,18.36-1.31,36.61-2.02,54.97-10.19,0-20.48,0-30.66.2-1.51,0-3.03.71-4.54,1.01v44.28c0,9.68,0,19.37.1,29.15,0,1.01.71,2.02,1.11,3.03,3.23-.3,6.56-.61,9.78-.91h41.35c22.69,2.93,45.29,5.85,68.59,8.78,1.71-8.57,3.83-18.56,5.85-28.54,2.93-14.42,5.55-28.95,8.78-43.37,1.01-4.64-.2-6.25-4.74-6.96-8.27-1.31-16.44-3.13-24.91-4.84,3.13-18.26,6.25-36.51,9.38-54.97,44.18,8.57,88.05,17.15,132.43,25.72-4.14,18.05-8.17,35.81-12.41,54.26-11.9-2.22-23.6-4.44-35.81-6.76-2.42,12.2-4.74,24.11-7.06,36.01-2.82,14.12-5.45,28.24-8.57,42.36-.71,3.43,1.11,3.13,3.03,3.63,22.9,6.35,45.89,12.41,68.69,19.16,15.03,4.44,30.26,8.57,43.88,18.05,11.3-26.63,22.49-52.85,33.89-79.78-8.57-3.73-16.94-7.46-25.82-11.3,6.86-17.25,13.62-34.19,20.68-51.74,41.56,17.85,82.71,35.5,124.06,53.26-7.87,16.84-15.63,33.39-23.7,50.43-11.09-4.74-22.19-9.48-33.59-14.32-21.89,46.9-43.67,93.6-65.76,140.7-2.42-1.71-4.74-3.33-6.96-4.84-23.9-16.54-50.63-27.43-77.87-37.02-34.29-12.1-69.39-21.48-105.2-27.94-25.82-4.64-51.94-7.97-77.97-11.2-11.9-1.51-23.9-1.51-35.91-2.32-10.79-.71-21.48-1.41-32.28-2.12-8.17-.3-16.34-.91-24.41-.91-6.05-.5-12,.1-17.95.5h0Z"/>
    <path class="cls-13" d="m1340.12,354.73h-33.18c-.4,0-.71.1-1.11.1-63.64,2.22-125.67,14.12-186.39,32.78-31.77,9.68-62.94,21.89-94.31,32.98-1.11.4-2.12.81-3.93,1.51-12.51-26.93-24.91-53.76-37.42-80.69-2.62.2-5.04.5-7.46.71-5.65.4-10.09-1.61-13.11-6.66-3.13-5.14-2.62-10.49.91-14.52,5.24-6.05,10.79-12.1,17.25-16.64,22.9-15.94,48.72-25.82,74.94-34.8,45.19-15.33,91.48-25.92,138.69-32.38,23.2-3.23,46.6-5.55,69.9-7.77,12-1.11,24.01-.91,36.01-1.31,1.92-.1,3.93-.5,5.85-.81.4,0,.71.1,1.11.1,18.56.3,37.22,0,55.78,1.01,21.79,1.21,43.67,3.13,65.36,5.75,69.39,8.57,137.27,23.4,201.62,51.54,14.73,6.46,29.05,13.92,41.35,24.51,3.23,2.82,6.15,6.15,8.78,9.58,3.43,4.54,4.54,9.68,1.61,15.13-3.03,5.55-7.77,7.56-13.82,7.06-2.12-.2-4.34-.4-6.86-.71-12.41,26.73-24.81,53.66-37.42,80.89-6.25-2.52-12.1-5.14-18.16-7.46-55.37-21.69-112.06-38.53-170.56-49.32-31.17-5.75-62.53-9.68-94.31-10.49-.3,0-.71,0-1.11-.1h0Zm111.45-60.32c-13.31-10.29-26.63-20.17-39.44-30.56-7.77-6.25-14.73-6.25-22.69-.81-10.29,6.96-20.78,13.52-31.27,20.17-3.23,2.12-6.66,4.03-10.09,6.15,13.52,10.59,26.73,20.68,39.64,31.07,6.96,5.65,13.52,5.85,20.98.91,14.02-9.18,28.34-17.85,42.87-26.93h0Zm-149.38-4.94c-6.76-4.34-13.31-8.57-19.87-12.71-7.97-5.04-15.94-9.88-23.8-15.03-6.66-4.34-12.61-3.83-18.86,1.01-13.52,10.59-27.23,21.08-41.05,31.67,3.23,1.92,6.46,3.73,9.58,5.65,11.6,7.26,23.3,14.52,34.9,21.99,6.25,4.03,12,4.03,17.95-.61,13.62-10.79,27.43-21.38,41.15-31.97h0Zm-154.02,16.24c-5.14-1.61-10.39-3.13-15.63-4.74-11.8-3.63-23.6-7.46-35.5-10.99-5.35-1.61-10.19-.91-13.92,4.03-3.23,4.24-6.96,8.17-10.19,12.51-7.87,10.29-15.53,20.68-23.2,30.96,16.14,4.94,32.18,9.58,48.11,14.83,8.57,2.93,14.93,1.01,20.07-6.25.61-.81,1.21-1.51,1.92-2.42,9.28-12.61,18.76-25.22,28.34-37.92h0Zm348.98,0c3.33,4.34,6.56,8.37,9.68,12.51,8.17,10.59,16.14,21.38,24.81,31.67,1.92,2.22,6.46,4.24,9.08,3.53,18.46-4.84,36.81-10.49,55.47-16.04-11.3-14.63-22.29-28.54-33.08-42.77-3.83-5.14-8.67-6.56-14.63-4.74-17.05,5.35-34.09,10.59-51.34,15.84h0Z"/>
    <path class="cls-13" d="m1566.75,447.83c-18.16-5.75-36.11-11.9-54.37-17.25-17.05-4.94-34.09-9.68-51.44-13.41-18.96-4.03-38.23-6.86-57.39-9.78-22.39-3.43-44.88-5.45-67.48-5.14-16.44.2-33.08-1.01-49.42.5-25.62,2.32-51.14,5.75-76.55,9.78-44.18,6.86-86.84,19.47-128.8,34.39-.91.3-1.92.81-2.82,1.11-13.41-6.35-26.83-12.61-40.35-18.96.1-.61.1-1.21.2-1.82,18.76-6.66,37.42-13.52,56.28-19.77,45.39-15.13,91.58-26.73,138.79-33.89,17.05-2.62,34.29-3.93,51.44-5.35,14.22-1.11,28.64-2.12,42.87-2.02,36.41.4,72.42,4.24,108.23,11.09,56.89,10.89,112.16,27.23,166.02,48.41,1.51.61,3.03,1.31,5.14,3.43-13.31,6.15-26.83,12.41-40.35,18.66h0Z"/>
    <path class="cls-6" d="m1344.25,506.23c-3.93.3-7.97.81-11.9.91-9.68.1-19.47,0-29.15-.1-1.11,0-2.22-.5-3.33-.81h44.38Z"/>
    <path class="cls-17" d="m973.48,877c.3.4.81.81.81,1.21-.2,14.12-.61,28.14-.81,42.26v-43.47h0Z"/>
    <path class="cls-8" d="m1304.91,208.68c5.95-.3,11.9-.91,17.95-.91,8.17.1,16.34.61,24.41.91h-42.36Z"/>
    <path class="cls-12" d="m1671.55,909.38c-.3-2.93-.81-5.85-.81-8.88.1-9.18.5-18.36.81-27.43v36.31Z"/>
    <path class="cls-16" d="m1354.34,68.69c1.51-.3,3.03-1.01,4.54-1.01,10.19-.1,20.48-.1,30.66-.2-1.71.4-3.43,1.01-5.04,1.11-10.09.1-20.07.1-30.16.1Z"/>
    <path class="cls-16" d="m1255.59,67.48c10.19.1,20.37.1,30.56.2,1.51,0,2.93.71,4.44,1.01-9.99,0-19.97,0-29.96-.1-1.61,0-3.33-.71-5.04-1.11h0Z"/>
    <path class="cls-6" d="m1355.55,145.14c-.4-1.01-1.11-2.02-1.11-3.03-.1-9.68-.1-19.37-.1-29.15.3,8.07.71,16.14,1.01,24.21.1,2.62.2,5.24.2,7.97Z"/>
    <path class="cls-16" d="m1290.69,124.06v21.38c-2.02-.4-3.53-.81-5.04-1.11,3.53.3,4.34-1.41,4.34-4.74-.1-5.14.4-10.29.71-15.53Z"/>
    <path class="cls-22" d="m1245.51,79.48c-.3-.3-.61-.5-.91-.81.3.3.61.61.91.81Z"/>
    <path class="cls-18" d="m1340.12,354.73c.4,0,.71.1,1.11.1-.3,0-.71-.1-1.11-.1Z"/>
    <path class="cls-18" d="m1305.92,354.83c.4,0,.71-.1,1.11-.1-.4,0-.71.1-1.11.1Z"/>
    <path class="cls-9" d="m1308.04,227.14c-.4,0-.71-.1-1.11-.1.4.1.71.1,1.11.1Z"/>
    <path class="cls-15" d="m1031.98,851.79c-3.23-106.31-28.24-206.77-81.8-299.86,10.39-6.56,20.78-13.21,31.17-19.87,17.75-11.2,35.4-22.49,53.26-33.49,1.61-1.01,4.64-1.31,6.25-.5,37.72,17.45,77.36,29.35,117.91,38.13,33.59,7.36,67.58,12.51,101.97,14.22,26.73,1.31,53.56,2.82,80.29,1.82,72.72-3.03,144.03-15.23,213.53-37.42,16.64-5.24,32.98-11.3,49.42-16.84,1.92-.61,4.84-.71,6.46.3,27.84,17.45,55.58,35.1,83.41,52.75.4.3.71.71,1.51,1.41-1.31,2.32-2.72,4.74-4.14,7.16-26.53,45.69-44.78,94.81-57.79,145.85-9.28,36.61-15.84,73.73-18.05,111.45-1.51,26.93-2.12,53.96-1.71,80.89.2,18.76,2.93,37.42,4.34,56.18.4,4.74,0,9.58,0,14.52h-591.16c1.82-26.63,3.53-52.95,5.24-79.28.3-10.09.61-20.17.81-30.16,0-2.42-.61-4.74-.91-7.26h0Zm249.84,73.73c-.3.3-.5.71-.81,1.01,0,7.67.1,15.23.1,22.9,5.04.4,9.99.91,15.03,1.01,2.52.1,5.04-.71,7.46-1.01,0-7.67.1-15.23.1-22.9-.3-.3-.5-.71-.81-1.01h-21.08Zm60.42-8.07c.3.3.71.5,1.01.81,6.96,0,13.92-.1,20.88-.1.4-2.32,1.11-4.74,1.01-7.06-.1-7.97-.5-15.94-.81-23.9-1.51-6.76-6.05-11.2-11.5-15.63-4.54,7.36-8.78,14.12-12.91,21.08-.5.81-1.01,2.12-.71,2.72,4.44,6.86,2.32,14.63,3.03,22.09h0Zm-39.34.71l1.01-.81c.91-7.36-1.61-15.13,2.93-22.09.3-.4.1-1.41-.2-1.82-4.44-7.26-8.88-14.42-13.52-22.09-5.14,4.94-10.09,8.88-11.3,15.73-.1.71-.3,1.41-.5,2.12,0,9.38-.1,18.76-.1,28.14l.71.71c6.86,0,13.92.1,20.98.1h0Zm-29.15-208.18h100.66c0-3.93,1.71-7.46-3.73-8.27-25.62-3.53-51.34-4.14-77.06-1.92-7.26.61-14.52,1.82-22.39,2.82.61,2.93,1.01,5.14,1.51,7.26.3.1.61.1,1.01.1h0Zm61.43,240.46c.3-.2.61-.5,1.01-.81.1-14.73.2-29.55.3-44.28.1-.1.3-.2.3-.3-.1-.2-.2-.5-.4-.71-2.62-6.56-7.56-10.39-13.21-10.29-5.65,0-11.09,4.34-13.31,10.29-.3.91-.81,1.82-.81,2.82,0,13.52-.1,27.03,0,40.55,0,1.01.81,1.92,1.21,2.93,8.27-.2,16.54-.2,24.91-.2h0Zm101.87-1.82v-22.9h-65.56v23.9c.4.3.71.91,1.11.91,21.08.1,42.06.1,63.14.1.4,0,.91-1.31,1.31-2.02h0Zm-162.39,1.01v-24.41h-66.47c0,8.17,0,16.44-.1,24.61,1.11.3,2.22.81,3.33.81h59.61c1.31,0,2.42-.61,3.63-1.01h0Zm162.29-31.27c.2-.3.5-.71.81-1.01v-27.13c-.2-.3-.5-.61-.81-.91h-65.16v29.05h65.16Zm-228.66,0h66.17v-29.05h-66.07c-.4,1.51-1.01,3.03-1.11,4.54-.1,6.66-.1,13.31,0,19.97,0,1.51.61,3.03,1.01,4.54h0Zm65.46-112.56h98.74c-1.11-9.38-2.22-18.36-3.23-27.23-1.31-.4-2.62-1.21-3.93-1.21-27.74-.1-55.58-.1-83.41,0-1.41,0-2.72.71-4.14,1.01-1.71,8.98-3.33,18.05-5.04,27.03.3.1.61.3,1.01.4h0Zm-19.26,37.02c-.4,3.73,2.52,1.92,3.83,1.92,43.27.1,86.44.1,129.71,0,1.51,0,3.03-.81,4.54-1.11-4.94-9.28-10.09-18.56-14.83-27.94-1.31-2.52-2.82-3.13-5.45-3.13-32.58.1-65.06.1-97.64,0-2.82,0-4.14,1.01-5.45,3.33-4.84,8.98-9.78,17.95-14.73,26.93h0Zm178.63,38.23c-10.19-8.47-20.37-16.94-30.36-25.62-3.73-3.23-7.46-4.74-12.61-4.74-44.58.2-89.26.2-133.84,0-6.05,0-10.99.91-15.13,5.65-3.33,3.73-7.56,6.66-11.3,9.99-5.65,5.04-11.3,10.09-17.85,15.84,18.36,0,35.4-.3,52.55.2,7.26.2,12.2-1.51,16.74-7.67,10.09-13.41,24.31-20.68,40.95-21.69,20.48-1.11,35.3,9.58,46.8,25.52,1.92,2.72,3.63,3.73,6.86,3.63,19.16-.2,38.23-.1,57.39-.1l-.2-1.01Zm-36.51-166.12h-35.4v23c-.3.3-.61.5-.91.81-6.05,0-12.1-.1-18.05-.1l-.71-.71c0-7.36-.1-14.73-.1-22.09l-.4-.91h-37.32v23.1c-.3.3-.61.5-.91.81-6.35,0-12.71-.1-19.06-.1l-.71-.71c0-7.36-.1-14.73-.1-22.09-.1-.3-.2-.61-.4-.91h-33.99c-.4.81-1.11,1.71-1.11,2.52-.1,16.84-.1,33.79,0,50.63,0,1.01.81,1.92,1.21,2.93,44.28,0,88.46.1,132.74.1,5.04,0,10.09-.1,15.03-.2l.71-.71c0-18.16.1-36.21.1-54.37-.1-.4-.3-.71-.61-1.01h0Zm-22.59-18.46c-4.44-13.52,5.95-20.27,12.1-29.15,2.93-4.24,6.15-8.67,7.56-13.52,4.14-14.42-2.02-23.9-16.94-26.53-9.48-1.61-19.37-.5-28.75,3.03-6.56,2.52-13.41,4.44-19.87,7.16-3.73,1.61-6.86,1.51-10.39-.4-14.42-7.56-29.65-11.09-45.99-10.19-14.93.81-24.41,15.53-17.35,28.65,3.33,6.15,7.77,11.8,12.2,17.15,5.35,6.35,9.88,12.71,8.07,21.58-.1.61.2,1.31.3,2.12,32.68-3.83,65.16-4.14,99.05.1h0Zm-56.08-102.38c.1,1.51.1,2.52.2,3.53.4,4.34-.1,7.67-5.04,9.88-5.24,2.32-7.87,7.67-8.88,13.31-.4,2.32-1.82,5.95,2.12,7.36,9.58,3.53,18.66,7.36,29.25,2.02,7.46-3.73,9.28-5.24,5.95-13.31-1.31-3.13-3.53-6.05-6.05-8.37-2.22-2.02-5.35-3.03-8.07-4.44v-9.78c2.02-.2,3.73-.4,5.55-.5v-7.56c-2.12-.3-3.83-.61-5.55-.81-.2-2.32-.4-4.24-.61-6.05h-8.47c-.2,2.32-.4,4.34-.61,6.25-2.02.2-3.63.3-5.45.5v7.67c1.92,0,3.53.1,5.65.3h0Zm29.35,272.83c-16.24-11.5-40.24-7.16-48.01.91,4.74,7.16,9.58,14.32,14.52,21.79,6.35-3.53,12.51-3.33,18.76,0,4.94-7.67,9.78-15.03,14.73-22.69Zm-4.84,58.7v25.01c6.46,0,12.61.1,18.76-.1,1.11,0,3.03-1.82,3.03-2.82.3-7.26.1-14.63.1-22.09h-21.89Z"/>
    <path class="cls-15" d="m1026.03,989.06h593.78c1.61,12.1,2.82,24.11,4.74,36.01,12,76.96,33.69,150.39,76.66,216.35,5.35,8.17,3.23,16.14-1.01,23.8-7.46,13.21-18.86,22.49-30.76,31.37-30.66,22.69-65.26,36.71-101.67,47.2-37.02,10.69-74.13,21.18-110.95,32.28-27.74,8.37-55.17,18.26-80.19,33.28-16.84,10.19-32.88,21.38-49.12,32.48-3.73,2.52-6.05,2.22-9.48-.2-15.23-10.99-30.26-22.39-46.3-32.07-28.75-17.35-60.52-27.94-92.49-37.42-41.86-12.41-84.12-23.9-125.98-36.51-32.18-9.68-61.32-25.52-86.84-47.51-7.67-6.56-14.22-14.73-20.17-22.9-6.25-8.67-6.15-17.55.3-27.43,27.94-42.46,46.2-89.16,59.21-138.08,9.28-34.9,15.94-70.2,19.37-106.21.1-1.41.5-2.82.91-4.44h0Zm536.29,175.8c.3.3.61.5.91.81-4.64,8.47-9.28,17.05-14.12,25.92,2.12,1.31,4.03,2.52,5.95,3.73.5-.5,1.01-.71,1.31-1.11,14.73-19.37,29.55-38.63,44.28-58,.71-.91,1.51-2.02,1.51-3.03.1-8.67.1-17.35.1-27.03-8.98,3.73-16.84,6.76-24.61,10.19-2.42,1.11-4.74,3.13-6.15,5.35-9.78,15.84-19.26,31.87-28.85,47.81-2.62,4.34-5.24,8.78-7.87,13.31,2.72,1.71,5.04,3.13,7.56,4.74,6.66-7.67,13.31-15.13,19.97-22.69h0Zm-261.34,18.56c6.66.3,8.88,2.62,9.08,9.68.1,2.72,0,5.55,0,8.67,1.41-.3,2.32-.3,3.03-.71,4.03-2.32,8.17-4.64,12.1-7.16,12.61-7.97,12.71-8.07,22.79,2.82,5.85,6.35,11.7,12.81,17.85,19.57,2.72-3.63,5.04-6.66,7.26-9.78,2.02-2.82,4.03-3.33,7.06-1.01,8.37,6.46,16.94,12.61,25.52,18.86,3.23,2.32,6.46,4.54,10.59,7.36-.5-2.62-.81-4.14-1.11-5.55-.4-1.61-1.01-3.23-1.31-4.84-1.11-5.85,1.01-7.97,6.46-5.65,5.35,2.32,10.29,5.65,15.43,8.37,2.72,1.41,5.55,2.42,9.28,4.03.1-8.47-2.32-15.53-7.56-19.57-8.07-6.35-17.55-10.79-26.93-16.34.1,2.42.3,3.93.2,5.35-.3,3.23-.81,6.46-1.21,9.58-3.03-1.31-6.35-2.32-9.08-4.14-9.18-6.46-18.16-13.21-27.54-20.07-1.82,2.72-3.33,5.14-4.94,7.36-3.73,5.24-5.35,5.24-9.58.5-5.35-5.95-11.09-11.7-16.34-17.75-3.53-4.03-6.96-4.44-11.3-1.41-4.24,2.93-8.67,5.65-13.21,8.17-2.93,1.61-6.05,1.71-7.16-2.42-.71-2.82-1.31-5.85-1.21-8.88.1-3.43-1.11-4.64-4.34-4.24-9.48,1.11-18.86,2.72-28.34,2.93-9.88.2-14.22,7.16-19.87,12.81.1.5.2,1.11.3,1.61,4.24.3,8.47.71,12.71,1.01,2.72.1,5.45.3,8.17.4,7.36.1,14.73.2,22.09.2.3.1.71.2,1.11.2h0Zm7.87-68.59c.2.2.4.5.61.71-13.52,12.31-28.64,23-40.35,39.13,2.12-.71,2.82-.91,3.63-1.21,14.83-4.84,29.65-9.58,44.38-14.52,3.83-1.31,5.75.1,7.16,3.23,1.11,2.52,2.02,5.14,3.13,7.77,3.13-2.32,5.85-4.64,8.78-6.56,6.46-4.24,7.46-4.24,12.81,1.41,5.04,5.24,9.88,10.69,15.03,16.24.61-1.11,1.01-1.82,1.31-2.62,3.93-7.87,5.24-8.17,12.2-2.82,5.85,4.44,11.6,8.98,17.95,13.92v-3.13c0-5.35,2.62-7.36,7.67-5.55,1.71.61,3.33,1.61,4.94,2.52,11.09,5.95,22.09,11.9,33.28,17.75,4.14,2.12,8.67,3.73,12.81,5.45-3.43-9.28-7.16-17.85-9.68-26.83-1.82-6.35-1.82-13.41,2.22-18.86,1.71-2.22,6.35-2.52,9.88-3.23,6.56-1.21,12.51-.61,17.65,4.64,1.82,1.82,4.94,2.62,7.67,3.13,3.63.71,6.15-1.61,6.05-4.94,0-5.35,1.82-9.18,5.75-12.71,1.61-1.41,1.41-4.84,2.02-7.26-2.02-.5-3.93-1.21-6.05-1.41-2.82-.2-5.75.3-8.57-.2-3.33-.61-6.86-1.61-9.78-3.33-1.51-.91-2.93-4.34-2.32-5.85,3.13-8.57,17.75-10.69,23.4-3.63,3.33,4.14,4.84,4.14,7.97-.2,1.92-2.52,3.33-5.45,5.35-7.87,6.56-7.26,7.16-10.59,2.42-18.96,1.11-1.51,2.32-3.13,3.53-4.64,4.94-6.56,3.83-13.62-3.13-17.95-6.25-3.93-13.41-6.46-20.58-4.84-8.07,1.82-14.32-1.11-20.68-5.04-2.72-1.71-5.14-3.83-7.97-5.24-7.77-3.53-15.63-6.76-23.4-10.09-4.34-1.82-9.68-2.62-12.91-5.65-8.57-8.07-19.06-12.31-29.75-16.44-2.72-1.01-6.35-1.11-9.08-.2-6.86,2.22-13.41,5.24-19.97,8.17-15.33,6.76-30.56,14.02-42.26,26.63-2.22,2.42-4.14,5.24-6.15,7.87.3.3.61.61.91.91,9.38-3.43,18.76-6.96,28.24-10.39-17.25,13.41-35.81,25.32-47,46.5,9.88-4.94,18.36-9.18,26.83-13.52-38.33,35.81-46.8,44.88-48.31,53.26,10.89-4.34,21.58-8.88,32.38-13.52h0Zm226.94,88.86c-6.05-1.01-12-2.12-17.95-3.03-4.94-.71-9.88-1.21-14.73-1.82-9.08-1.21-17.55-1.01-22.9,8.17-.91,1.61-2.22,2.93-3.33,4.44-4.44,6.05-10.39,8.17-17.65,6.15-3.13-.91-6.35-1.82-10.29-2.93,2.12,6.05,4.14,11.3,5.75,16.74,1.31,4.34-.81,6.46-5.35,5.35-1.92-.5-3.83-1.31-5.55-2.22-6.25-3.23-12.41-6.66-18.66-9.88-1.51-.81-3.13-1.21-5.75-2.12,2.02,4.94,3.73,8.67,4.94,12.41.61,1.82.2,4.03.3,6.05-2.12-.4-4.44-.5-6.25-1.41-2.72-1.31-5.14-3.23-7.56-4.94-8.07-5.65-16.04-11.6-24.41-16.94-11.5-7.46-8.98-6.46-15.63,2.72-.2.3-.4.61-.61.81-3.83,4.84-5.14,5.04-9.38.5-6.76-7.26-13.41-14.52-20.07-21.89-3.53-3.93-7.36-4.14-11.6-1.31-4.24,2.82-8.27,5.75-12.51,8.37-3.23,1.92-6.76,4.44-10.69,1.92-3.73-2.42-2.52-6.15-2.12-9.68.1-.5.1-1.01.1-1.51.3-6.46-1.82-8.07-8.37-7.67-7.56.5-15.13.71-22.59.5-5.04-.2-10.09-1.31-15.53-2.12,1.01,3.33,1.82,6.05,2.72,8.67,1.71,5.24.71,9.48-3.43,13.62-10.79,10.79-23.7,15.43-38.63,15.23-13.21-.2-25.62-4.14-38.03-8.67-24.51-9.08-39.54-26.12-44.88-51.74-1.61-7.97-.4-15.73,3.03-23.1,3.03-6.56,9.48-8.78,15.94-5.55,7.26,3.53,11.5,9.48,10.39,17.35-.81,5.95-3.33,11.9-6.46,17.15-2.82,4.74-7.46,8.37-11.5,12.61,8.47,11.4,17.85,21.99,30.96,27.74,1.82-3.73,3.13-7.06,4.94-10.19,9.48-15.63,15.63-31.97,14.63-50.83-.61-10.49-3.53-19.37-10.39-27.03-10.69-12-23.8-17.25-40.14-16.84-17.35.4-31.57,6.35-41.96,19.97-5.24,6.86-9.38,14.73-12.81,22.59-7.56,17.65-11.9,36.01-9.88,55.58,2.42,23.9,12.61,44.28,27.43,62.64,5.65,6.96,12,13.31,18.05,19.97.3-.2.61-.5,1.01-.71-.71-4.64-1.41-9.38-2.12-14.02.61-.2,1.11-.4,1.71-.61,3.93,11.8,9.68,22.19,21.38,28.44-.3-4.03-.5-7.46-.81-10.89.5-.2,1.01-.3,1.41-.4,7.06,12.31,16.54,21.89,30.06,28.85-1.71-5.65-3.23-10.29-4.64-14.93,5.14,3.63,9.18,7.97,13.92,11.3,6.96,4.84,14.42,8.88,21.69,13.31,0,.1.1.3.1.4s.2,0,.3,0c-.2-.1-.3-.3-.5-.4-1.61-5.14-3.23-10.19-5.24-16.54,8.88,10.89,18.66,17.95,31.87,21.79-.61-5.45-1.21-10.19-1.82-15.53,11.09,9.28,22.29,16.64,37.92,15.03-2.93-4.74-5.24-8.47-7.56-12.2,12.71,5.14,24.31,11.4,38.53,6.46-3.73-2.93-6.96-5.55-10.19-8.17,10.59,1.21,20.48,5.65,31.37,1.21-3.53-3.03-6.66-5.75-10.99-9.48,2.72.61,3.93.81,5.14,1.01,5.55.81,11.4,2.82,16.74,1.92,10.99-1.71,21.89-2.52,32.78.1,21.48,5.14,42.87,10.69,64.35,15.94,12.31,3.03,24.61,6.35,37.12,8.47,8.67,1.51,9.88-.5,7.46-8.88-.1-.2.1-.61.3-1.21,1.71.3,3.43.81,5.24,1.01,6.66.91,10.19-2.93,8.07-9.28-1.21-3.53-3.13-7.16-5.75-9.78-9.18-9.38-20.98-14.22-33.18-18.05-1.31-.4-3.03-.3-4.44,0-10.29,2.72-19.57-.4-28.54-4.74-5.95-2.82-10.59-7.36-13.41-14.52h5.55c16.94,0,33.18-3.23,48.31-11.3,5.75-3.03,11.9-5.75,18.26-6.86,9.18-1.71,18.26-2.82,26.63,5.04,10.09,9.48,20.98,5.95,24.41-6.76-8.17-1.21-14.12-5.85-18.46-12.61-1.51-2.42-3.03-2.93-5.75-2.12-2.22.71-4.84.81-6.96.2-1.51-.4-2.52-2.42-3.73-3.73,1.41-.91,2.72-2.42,4.24-2.72,1.71-.3,3.63.2,5.45.61,4.03.91,6.46-.71,7.67-4.44,1.21-3.73,2.62-7.46,3.93-10.89,3.93.81,7.67,2.22,11.09,1.92,3.13-.3,6.76-2.12,8.88-4.34,2.52-2.62,1.61-6.25-.81-9.18-.2-.3-.1-.91-.2-1.41,7.67,4.54,15.43,9.18,23.4,13.92,2.22-2.93,4.34-5.75,6.76-9.08-15.94-10.19-31.47-19.97-47.3-30.06-2.12,3.43-4.03,6.46-5.95,9.68,1.92,1.31,3.43,2.22,4.94,3.33,6.56,3.93,12.61,8.07,18.76,12.1h0Zm-510.16,40.65c-1.82,1.31-3.53,2.62-5.24,3.93-8.37,6.46-15.43,14.02-17.95,24.71-.4,1.61,0,4.24,1.11,5.24,5.65,4.94,12.2,8.47,19.97,8.17,6.25-.3,12.51-1.21,18.86-1.82,1.71,3.03,3.43,6.46,5.65,9.68,5.95,8.47,13.52,14.32,24.41,14.42,3.53,0,5.14-1.11,6.15-4.84,3.83-14.83,5.75-30.66,19.67-39.24-6.56-13.31-12.91-26.12-19.16-38.83-17.95,1.31-33.49-3.23-43.57-20.48-13.31,10.89-13.31,24.51-9.88,39.03h0Zm346.56-85.73c-1.11,1.82-1.92,3.13-2.72,4.34-3.53,5.24-4.14,5.45-8.57,1.11-4.94-4.74-9.99-9.48-14.63-14.52-2.82-3.13-5.14-3.93-8.78-.91-2.93,2.42-6.46,4.24-9.78,6.05-3.33,1.71-5.75.91-6.66-3.13-.71-2.82-1.82-5.55-2.93-8.57-16.74,6.15-32.78,12.1-48.72,17.95,3.43,1.11,6.86,1.41,10.09,1.01,4.84-.5,9.58-1.61,14.32-2.32,17.05-2.72,18.86-1.61,22.79,14.42,5.45-2.93,10.69-6.25,16.34-8.57,2.32-.91,6.15-.61,8.17.71,3.83,2.52,6.96,6.25,10.29,9.58,3.83,3.83,7.46,7.87,11.4,12,2.12-2.82,3.83-5.35,5.75-7.67,2.12-2.52,4.54-3.33,7.46-1.11,1.71,1.31,3.63,2.32,5.45,3.63,7.56,5.45,15.13,10.99,22.9,16.74.2-.91.3-1.41.3-1.92-.3-3.43-.91-7.77,2.82-8.78,3.03-.91,6.86.61,10.29,1.41,1.41.3,2.42,1.71,3.73,2.52,6.96,4.03,13.92,8.17,20.98,11.9,8.07,4.24,13.92,2.82,19.47-6.96-19.97-9.99-39.94-19.97-60.01-29.96.2,1.51.71,3.43.81,5.45.3,4.34-1.71,5.65-5.45,3.63-1.51-.81-2.93-1.71-4.24-2.72-6.76-5.04-13.72-10.09-20.88-15.33h0Zm142.72,74.54c2.93,3.43,5.45,6.56,8.07,9.58,3.73,4.24,9.38,5.75,14.02,3.43,4.44-2.12,6.86-5.45,6.35-9.38-8.67-3.83-16.54-7.36-24.41-10.79-1.21,2.32-2.62,4.74-4.03,7.16h0Zm-56.18,55.17c13.52,4.24,26.02,8.37,34.29,20.37,1.71-6.76.4-12.31-4.74-15.73-8.57-5.95-17.75-10.19-29.55-4.64h0Zm83.21-73.33c-2.93,11.09-12.31,5.24-19.97,7.26,5.35,2.22,9.58,4.14,14.02,5.75,3.23,1.21,6.66,2.82,10.09,2.72,2.22,0,5.45-2.12,6.46-4.14,1.31-2.72.2-5.85-3.13-7.56-2.42-1.11-4.64-2.52-7.46-4.03h0Z"/>
    <path class="cls-1" d="m1031.98,851.79c.3,2.42.81,4.84.81,7.26-.2,10.09-.5,20.17-.81,30.16.1-12.41.1-24.91,0-37.42h0Z"/>
    <path class="cls-20" d="m1451.57,294.42c-14.52,9.08-28.75,17.85-42.77,27.03-7.46,4.94-14.02,4.74-20.98-.91-12.91-10.39-26.12-20.48-39.64-31.07,3.43-2.12,6.76-4.03,10.09-6.15,10.39-6.66,20.98-13.21,31.27-20.17,7.97-5.45,15.03-5.55,22.69.81,12.71,10.29,26.02,20.17,39.34,30.46h0Zm-39.74-2.02c0-6.76-5.24-12.1-12-12.2s-12.2,5.14-12.31,11.8c-.1,6.86,5.35,12.51,12.2,12.51s12.1-5.45,12.1-12.1h0Z"/>
    <path class="cls-20" d="m1302.19,289.38c-13.72,10.59-27.54,21.18-41.25,31.97-5.95,4.64-11.7,4.74-17.95.61-11.5-7.46-23.2-14.63-34.9-21.99-3.13-1.92-6.25-3.73-9.58-5.65,13.82-10.69,27.54-21.08,41.05-31.67,6.15-4.84,12.2-5.45,18.86-1.01,7.87,5.14,15.84,9.99,23.8,15.03,6.66,4.24,13.31,8.47,19.97,12.71h0Zm-63.75,2.62c-.1,6.56,5.14,12.31,11.7,12.61,6.56.3,12.31-5.14,12.61-11.7.2-7.06-4.94-12.61-12-12.61-6.86-.2-12.2,4.94-12.31,11.7h0Z"/>
    <path class="cls-20" d="m1148.17,305.71c-9.58,12.71-18.96,25.32-28.44,37.92-.61.81-1.31,1.51-1.92,2.42-5.04,7.26-11.4,9.08-20.07,6.25-15.84-5.35-31.97-9.88-48.11-14.83,7.67-10.29,15.43-20.68,23.2-30.96,3.23-4.24,6.96-8.17,10.19-12.51,3.73-4.84,8.47-5.65,13.92-4.03,11.9,3.53,23.7,7.36,35.5,10.99,5.35,1.61,10.59,3.23,15.73,4.74h0Zm-49.02,28.24c6.76,0,12.1-5.24,12.2-12,.1-6.46-5.55-12.2-12-12.31-6.96-.1-12.31,5.35-12.31,12.41s5.24,12,12.1,11.9h0Z"/>
    <path class="cls-20" d="m1497.16,305.71c17.15-5.24,34.29-10.49,51.44-15.73,5.95-1.82,10.69-.3,14.63,4.74,10.79,14.12,21.79,28.14,33.08,42.77-18.76,5.45-37.02,11.09-55.47,16.04-2.62.71-7.26-1.31-9.08-3.53-8.57-10.29-16.54-21.08-24.81-31.67-3.23-4.24-6.46-8.27-9.78-12.61h0Zm49.42,28.64c6.35-.2,12.31-6.25,12.2-12.51-.1-6.66-6.25-12.61-12.81-12.31-6.46.3-12.1,6.25-12,12.61.2,6.35,6.46,12.41,12.61,12.2h0Z"/>
    <path class="cls-19" d="m1283.83,738.62c6.35,0,12.71.1,19.06.1.3-.3.61-.5.91-.81v-23.1h37.32c.1.3.2.61.4.91,0,7.36.1,14.73.1,22.09l.71.71c6.05,0,12.1.1,18.05.1.3-.3.61-.5.91-.81v-23h35.4c.2.3.5.61.81.91,0,18.16-.1,36.21-.1,54.37l-.71.71c-5.04.1-10.09.2-15.03.2-44.28,0-88.46,0-132.74-.1,0-18.66-.1-37.42-.1-56.08h33.99c.1.3.2.61.4.91,0,7.36.1,14.73.1,22.19,0,.3.3.5.5.71h0Z"/>
    <path class="cls-20" d="m1374.01,696.46c-33.89-4.24-66.37-3.93-98.95,0-.1-.91-.5-1.51-.3-2.12,1.82-8.88-2.72-15.23-8.07-21.58-4.54-5.35-8.98-10.99-12.2-17.15-7.06-13.11,2.42-27.84,17.35-28.65,16.34-.91,31.67,2.62,45.99,10.19,3.53,1.92,6.56,2.02,10.39.4,6.46-2.82,13.21-4.74,19.87-7.16,9.28-3.53,19.26-4.64,28.75-3.03,14.93,2.52,21.18,12.1,16.94,26.53-1.41,4.84-4.64,9.28-7.56,13.52-6.15,8.78-16.54,15.53-12.2,29.05h0Zm-50.73-52.55c-3.23,7.87-6.05,14.63-8.88,21.48-.4.91-.61,2.12-.2,2.93,2.82,7.06,5.75,14.12,9.08,22.29,3.43-8.07,6.46-15.03,9.28-21.99.4-1.01.1-2.62-.3-3.73-2.72-6.66-5.65-13.31-8.98-20.98h0Zm-33.18,1.92c-2.52,5.65-4.64,10.39-6.56,15.13-.5,1.21-1.21,2.72-.81,3.73,2.12,5.55,4.54,10.99,7.06,16.94,8.67-14.73,8.78-16.14,2.62-30.46-.61-1.41-1.21-2.72-2.32-5.35Zm68.99.2c-2.62,6.05-4.94,11.2-7.06,16.34-.4.91-.3,2.32,0,3.23,2.12,5.14,4.44,10.29,7.06,16.34,2.62-6.15,4.84-11.4,6.96-16.64.3-.81.3-2.02-.1-2.82-2.12-5.24-4.34-10.39-6.86-16.44h0Z"/>
    <path class="cls-20" d="m1433.11,882.15c-19.16,0-38.23,0-57.39.1-3.23,0-4.94-1.01-6.86-3.63-11.4-15.94-26.22-26.73-46.8-25.52-16.64.91-30.86,8.17-40.95,21.69-4.64,6.15-9.58,7.87-16.74,7.67-17.05-.5-34.19-.2-52.55-.2,6.56-5.75,12.1-10.89,17.85-15.84,3.73-3.33,7.97-6.25,11.3-9.99,4.24-4.74,9.18-5.65,15.13-5.65,44.58.2,89.26.2,133.84,0,5.14,0,8.88,1.51,12.61,4.74,9.99,8.67,20.27,17.05,30.36,25.62.2.3.2.71.2,1.01Z"/>
    <path class="cls-19" d="m1254.48,842.81c4.84-8.98,9.88-17.95,14.63-26.93,1.21-2.32,2.62-3.33,5.45-3.33,32.58.1,65.06.1,97.64,0,2.62,0,4.24.61,5.45,3.13,4.74,9.38,9.88,18.66,14.83,27.94-.5,0-1.01.2-1.51.2h-132.74c-1.21,0-2.52-.71-3.73-1.01h0Z"/>
    <path class="cls-19" d="m1272.74,805.39c1.71-8.98,3.33-18.05,5.04-27.03,12.61,0,25.11-.1,37.72,0,17.95,0,35.81.2,53.76.2,1.01,8.88,2.12,17.75,3.23,27.23h-98.74c-.3-.1-.71-.3-1.01-.4h0Z"/>
    <path class="cls-19" d="m1208.29,889.31h66.07v29.05h-66.17c.1-9.68.1-19.37.1-29.05Z"/>
    <path class="cls-19" d="m1437.65,890.21v27.13c-.2.3-.5.71-.81,1.01h-65.16v-29.05h65.16c.3.3.61.61.81.91Z"/>
    <path class="cls-19" d="m1208.09,949.92c0-8.17,0-16.44.1-24.61h66.47v24.41c-22.19,0-44.38.1-66.57.2h0Z"/>
    <path class="cls-19" d="m1371.48,949.62v-23.9h65.56v22.9c-1.41.3-2.82,1.01-4.14,1.01-20.48.1-40.95,0-61.43,0Z"/>
    <path class="cls-19" d="m1309.86,904.23c2.12-5.95,7.67-10.29,13.31-10.29s10.59,3.83,13.21,10.29c0,.3,0,.71.1,1.01-.1,14.73-.2,29.55-.3,44.28-.3.2-.61.5-1.01.81h-24.91c-.2-15.23-.3-30.66-.4-46.09h0Z"/>
    <path class="cls-20" d="m1317.93,594.08c-2.02-.2-3.63-.3-5.55-.5v-7.67c1.82-.2,3.43-.3,5.45-.5.2-2.02.4-3.93.61-6.25h8.47c.2,1.82.4,3.83.61,6.05,1.71.3,3.43.5,5.55.81v7.56c-1.82.2-3.53.3-5.55.5v9.78c2.62,1.41,5.75,2.42,8.07,4.44,2.52,2.32,4.74,5.24,6.05,8.37,3.33,8.07,1.51,9.58-5.95,13.31-10.59,5.24-19.77,1.41-29.25-2.02-3.93-1.41-2.52-4.94-2.12-7.36.91-5.55,3.53-10.99,8.88-13.31,4.94-2.22,5.55-5.45,5.04-9.88-.3-.81-.3-1.82-.3-3.33h0Z"/>
    <path class="cls-20" d="m1272.64,709.97c-.4-2.22-.91-4.34-1.51-7.26,7.97-1.01,15.13-2.22,22.39-2.82,25.72-2.22,51.44-1.51,77.06,1.92,5.45.71,3.73,4.34,3.73,8.27h-100.66c-.3-.1-.61-.1-1.01-.1h0Z"/>
    <path class="cls-2" d="m1347.28,866.91c-4.94,7.56-9.68,15.03-14.73,22.69-6.35-3.23-12.41-3.53-18.76,0-4.94-7.36-9.78-14.63-14.52-21.79,7.77-8.07,31.77-12.41,48.01-.91Z"/>
    <path class="cls-20" d="m1281.11,917.35c0-9.38.1-18.76.1-28.14.1-.71.3-1.41.5-2.12,1.21-6.76,6.15-10.79,11.3-15.73,4.74,7.67,9.18,14.83,13.52,22.09.3.5.5,1.41.2,1.82-4.54,6.96-1.92,14.73-2.93,22.09-.3.2-.61.5-1.01.81-7.06,0-14.02-.1-21.08-.1-.1-.2-.3-.5-.61-.71h0Z"/>
    <path class="cls-19" d="m1364.22,918.05c-6.96,0-13.92.1-20.88.1-.3-.3-.71-.5-1.01-.81-.71-7.36,1.41-15.13-2.93-22.19-.3-.5.2-1.92.71-2.72,4.14-6.86,8.37-13.72,12.91-21.08,5.45,4.44,9.88,8.88,11.5,15.63-.2,10.49-.2,20.78-.3,31.07h0Z"/>
    <path class="cls-19" d="m1281.11,949.42c0-7.67-.1-15.23-.1-22.9.3-.3.5-.71.81-1.01h21.08c.3.3.5.71.81,1.01,0,7.67-.1,15.23-.1,22.9h-22.49Z"/>
    <path class="cls-19" d="m1342.44,925.62h21.99c0,7.46.1,14.73-.1,22.09,0,1.01-1.92,2.82-3.03,2.82-6.15.3-12.31.1-18.76.1l-.1-25.01h0Z"/>
    <path class="cls-1" d="m1254.48,842.81c1.21.3,2.42,1.01,3.63,1.01h132.74c.5,0,1.01-.1,1.51-.2-1.51.4-3.03,1.11-4.54,1.11-43.17.1-86.44.1-129.71,0-1.11,0-4.03,1.82-3.63-1.92h0Z"/>
    <path class="cls-1" d="m1369.16,778.56c-17.95-.1-35.81-.2-53.76-.2h-37.72c1.41-.3,2.72-1.01,4.14-1.01,27.74-.1,55.58-.1,83.41,0,1.31,0,2.62.81,3.93,1.21h0Z"/>
    <path class="cls-1" d="m1371.48,949.62c20.48,0,40.95.1,61.43,0,1.41,0,2.82-.71,4.14-1.01-.4.71-.91,1.92-1.31,1.92-21.08,0-42.06,0-63.14-.1-.4.1-.71-.5-1.11-.81h0Z"/>
    <path class="cls-1" d="m1208.09,949.92c22.19-.1,44.38-.2,66.57-.3-1.21.3-2.42,1.01-3.63,1.01-19.87.1-39.74.1-59.61,0-1.11,0-2.22-.5-3.33-.71h0Z"/>
    <path class="cls-1" d="m1248.63,714.91c0,18.66.1,37.42.1,56.08-.4-1.01-1.21-1.92-1.21-2.93-.1-16.84-.1-33.79,0-50.63,0-.81.71-1.71,1.11-2.52h0Z"/>
    <path class="cls-1" d="m1309.86,904.23c.1,15.43.3,30.76.4,46.2-.4-1.01-1.21-1.92-1.21-2.93-.1-13.52-.1-27.03,0-40.55,0-.91.5-1.82.81-2.72h0Z"/>
    <path class="cls-10" d="m1364.22,918.05c.1-10.29.2-20.68.2-30.96.3,7.97.71,15.94.81,23.9.1,2.42-.71,4.74-1.01,7.06h0Z"/>
    <path class="cls-1" d="m1208.29,889.31c0,9.68,0,19.37-.1,29.05-.4-1.51-1.01-3.03-1.01-4.54-.1-6.66-.1-13.31,0-19.97.1-1.51.81-3.03,1.11-4.54h0Z"/>
    <path class="cls-10" d="m1281.11,949.42h22.49c-2.52.4-5.04,1.11-7.46,1.01-5.04,0-9.99-.61-15.03-1.01h0Z"/>
    <path class="cls-7" d="m1281.72,887.09c-.1.71-.3,1.41-.5,2.12.2-.71.3-1.41.5-2.12Z"/>
    <path class="cls-7" d="m1436.94,918.35c.2-.3.5-.71.81-1.01-.3.4-.61.71-.81,1.01Z"/>
    <path class="cls-10" d="m1281.82,925.52c-.3.3-.5.71-.81,1.01.2-.3.5-.71.81-1.01Z"/>
    <path class="cls-14" d="m1272.74,805.39c.3.1.61.2,1.01.4-.4-.1-.71-.3-1.01-.4Z"/>
    <path class="cls-7" d="m1396.6,770.89l.71-.71c-.3.2-.5.5-.71.71Z"/>
    <path class="cls-14" d="m1361.2,738.01c-.3.3-.61.5-.91.81.4-.3.61-.61.91-.81Z"/>
    <path class="cls-14" d="m1342.23,738.62l-.71-.71c.2.3.5.5.71.71Z"/>
    <path class="cls-7" d="m1335.17,950.43c.3-.2.61-.5,1.01-.81-.4.3-.71.5-1.01.81Z"/>
    <path class="cls-14" d="m1303.81,738.01c-.3.3-.61.5-.91.81.3-.3.61-.61.91-.81Z"/>
    <path class="cls-14" d="m1283.83,738.62l-.71-.71c.2.3.4.5.71.71Z"/>
    <path class="cls-7" d="m1397.41,715.82c-.2-.3-.5-.61-.81-.91.3.3.5.61.81.91Z"/>
    <path class="cls-14" d="m1433.11,882.15c0-.4,0-.71-.1-1.11.1.4.1.81.1,1.11Z"/>
    <path class="cls-14" d="m1336.38,905.34c0-.3,0-.71-.1-1.01.1.2.3.5.4.71l-.3.3h0Z"/>
    <path class="cls-10" d="m1303.7,926.52c-.3-.3-.5-.71-.81-1.01.3.3.5.71.81,1.01Z"/>
    <path class="cls-7" d="m1281.11,917.35l.71.71c-.2-.2-.4-.5-.71-.71Z"/>
    <path class="cls-14" d="m1283.03,715.82c-.1-.3-.2-.61-.4-.91.1.3.3.61.4.91Z"/>
    <path class="cls-7" d="m1302.9,918.15c.3-.2.61-.5,1.01-.81-.4.3-.71.61-1.01.81Z"/>
    <path class="cls-14" d="m1341.43,715.82c-.1-.3-.2-.61-.4-.91.2.3.3.61.4.91Z"/>
    <path class="cls-7" d="m1437.65,890.21c-.2-.3-.5-.61-.81-.91.3.3.61.61.81.91Z"/>
    <path class="cls-10" d="m1342.23,917.45c.3.3.71.5,1.01.81-.3-.3-.61-.61-1.01-.81Z"/>
    <path class="cls-19" d="m1211.21,1327.66c-7.26-4.34-14.73-8.47-21.69-13.31-4.74-3.33-8.78-7.67-13.92-11.3,1.41,4.64,2.82,9.28,4.64,14.93-13.52-6.86-23-16.54-30.06-28.85-.5.2-1.01.3-1.41.4.2,3.43.5,6.86.81,10.89-11.7-6.25-17.45-16.64-21.38-28.44-.61.2-1.11.4-1.71.61.71,4.64,1.41,9.38,2.12,14.02-.3.2-.61.5-1.01.71-6.05-6.66-12.41-13.01-18.05-19.97-14.93-18.26-25.11-38.63-27.43-62.64-1.92-19.57,2.32-37.92,9.88-55.58,3.43-7.97,7.56-15.84,12.81-22.59,10.39-13.62,24.51-19.57,41.96-19.97,16.34-.4,29.45,4.94,40.14,16.84,6.86,7.67,9.78,16.54,10.39,27.03,1.01,18.86-5.24,35.2-14.63,50.83-1.82,3.13-3.23,6.46-4.94,10.19-13.11-5.85-22.49-16.34-30.96-27.74,4.03-4.34,8.67-7.97,11.5-12.61,3.13-5.14,5.55-11.2,6.46-17.15,1.11-7.87-3.23-13.82-10.39-17.35-6.46-3.13-13.01-1.01-15.94,5.55-3.33,7.36-4.64,15.03-3.03,23.1,5.24,25.62,20.27,42.66,44.88,51.74,12.31,4.54,24.71,8.47,38.03,8.67,14.93.2,27.84-4.54,38.63-15.23,4.14-4.14,5.14-8.37,3.43-13.62-.91-2.72-1.71-5.45-2.72-8.67,5.45.81,10.49,1.92,15.53,2.12,7.56.2,15.13,0,22.59-.5,6.56-.4,8.67,1.21,8.37,7.67,0,.5,0,1.01-.1,1.51-.4,3.43-1.61,7.26,2.12,9.68,3.93,2.52,7.46.1,10.69-1.92,4.34-2.62,8.37-5.65,12.51-8.37,4.24-2.82,8.07-2.62,11.6,1.31,6.56,7.36,13.31,14.63,20.07,21.89,4.24,4.54,5.55,4.34,9.38-.5.2-.3.4-.61.61-.81,6.66-9.18,4.14-10.19,15.63-2.72,8.27,5.45,16.24,11.3,24.41,16.94,2.52,1.71,4.84,3.63,7.56,4.94,1.82.91,4.14,1.01,6.25,1.41-.1-2.02.3-4.24-.3-6.05-1.21-3.83-2.93-7.46-4.94-12.41,2.62,1.01,4.24,1.41,5.75,2.12,6.25,3.23,12.41,6.66,18.66,9.88,1.82.91,3.63,1.71,5.55,2.22,4.44,1.21,6.66-.91,5.35-5.35-1.61-5.35-3.63-10.59-5.75-16.74,3.93,1.11,7.06,2.12,10.29,2.93,7.26,2.02,13.21-.1,17.65-6.15,1.11-1.51,2.42-2.82,3.33-4.44,5.35-9.18,13.92-9.38,22.9-8.17,4.94.71,9.88,1.11,14.73,1.82,6.05.91,12,2.02,17.95,3.03l-.1-.1c.1.5-.1,1.11.2,1.41,2.42,2.93,3.33,6.56.81,9.18-2.12,2.32-5.75,4.03-8.88,4.34-3.53.4-7.16-1.11-11.09-1.92-1.21,3.43-2.62,7.16-3.93,10.89-1.31,3.83-3.73,5.35-7.67,4.44-1.82-.4-3.73-1.01-5.45-.61-1.51.3-2.82,1.71-4.24,2.72,1.21,1.31,2.22,3.33,3.73,3.73,2.12.61,4.74.4,6.96-.2,2.72-.81,4.14-.3,5.75,2.12,4.34,6.76,10.29,11.4,18.46,12.61-3.53,12.71-14.32,16.24-24.41,6.76-8.37-7.87-17.45-6.76-26.63-5.04-6.25,1.11-12.51,3.83-18.26,6.86-15.13,8.07-31.37,11.3-48.31,11.3h-5.55c2.82,7.16,7.46,11.7,13.41,14.52,8.98,4.34,18.26,7.36,28.54,4.74,1.41-.4,3.13-.5,4.44,0,12.2,3.93,24.11,8.67,33.18,18.05,2.52,2.62,4.54,6.25,5.75,9.78,2.12,6.25-1.41,10.19-8.07,9.28-1.82-.2-3.53-.71-5.24-1.01-.2.71-.4,1.01-.3,1.21,2.32,8.37,1.21,10.39-7.46,8.88-12.51-2.12-24.81-5.45-37.12-8.47-21.48-5.24-42.87-10.69-64.35-15.94-10.89-2.62-21.69-1.82-32.78-.1-5.35.81-11.09-1.21-16.74-1.92-1.21-.2-2.42-.5-5.14-1.01,4.34,3.73,7.46,6.35,10.99,9.48-10.89,4.44-20.78.1-31.37-1.21,3.23,2.62,6.46,5.14,10.19,8.17-14.22,5.04-25.92-1.31-38.53-6.46,2.32,3.73,4.64,7.56,7.56,12.2-15.73,1.61-26.93-5.75-37.92-15.03.61,5.35,1.21,10.09,1.82,15.53-13.21-3.73-23-10.89-31.87-21.79,1.61,6.66,3.23,11.7,4.84,16.74h0Z"/>
    <path class="cls-20" d="m1308.85,1114.84c-10.79,4.64-21.48,9.28-32.07,13.82,1.51-8.37,9.88-17.45,48.31-53.26-8.47,4.24-16.94,8.47-26.83,13.52,11.3-21.18,29.75-33.08,47-46.5-9.38,3.43-18.76,6.96-28.24,10.39-.3-.3-.61-.61-.91-.91,2.02-2.62,3.83-5.45,6.15-7.87,11.7-12.61,26.83-19.87,42.26-26.63,6.56-2.93,13.21-5.85,19.97-8.17,2.72-.91,6.46-.91,9.08.2,10.59,4.03,21.08,8.37,29.75,16.44,3.23,3.03,8.57,3.83,12.91,5.65,7.87,3.33,15.73,6.56,23.4,10.09,2.82,1.31,5.24,3.53,7.97,5.24,6.35,3.83,12.51,6.86,20.68,5.04,7.16-1.61,14.32.91,20.58,4.84,6.96,4.34,8.07,11.4,3.13,17.95-1.21,1.61-2.42,3.23-3.53,4.64,4.74,8.27,4.14,11.6-2.42,18.96-2.12,2.32-3.53,5.24-5.35,7.87-3.23,4.34-4.64,4.34-7.97.2-5.65-7.06-20.27-4.94-23.4,3.63-.61,1.51.81,4.94,2.32,5.85,2.82,1.82,6.35,2.72,9.78,3.33,2.72.5,5.75-.1,8.57.2,2.02.2,4.03.91,6.05,1.41-.61,2.52-.4,5.95-2.02,7.26-3.93,3.53-5.85,7.36-5.75,12.71,0,3.43-2.42,5.75-6.05,4.94-2.72-.5-5.85-1.31-7.67-3.13-5.14-5.14-11.2-5.85-17.65-4.64-3.43.61-8.17.91-9.88,3.23-4.03,5.45-4.03,12.61-2.22,18.86,2.52,8.88,6.25,17.55,9.68,26.83-4.14-1.71-8.67-3.33-12.81-5.45-11.2-5.75-22.19-11.8-33.28-17.75-1.61-.91-3.23-1.92-4.94-2.52-5.04-1.82-7.67.2-7.67,5.55v3.13c-6.35-4.94-12.2-9.48-17.95-13.92-7.06-5.35-8.27-5.04-12.2,2.82-.4.71-.81,1.51-1.31,2.62-5.14-5.55-9.99-10.99-15.03-16.24-5.35-5.65-6.35-5.65-12.81-1.41-2.93,1.92-5.65,4.14-8.78,6.56-1.01-2.62-2.02-5.24-3.13-7.77-1.41-3.13-3.43-4.54-7.16-3.23-14.73,5.04-29.55,9.78-44.38,14.52-.81.2-1.51.5-3.63,1.21,11.7-16.14,26.83-26.73,40.35-39.13.4-.3.81-.61,1.31-.91-.1-.2-.2-.4-.4-.61-.81,0-1.31.2-1.82.5h0Zm104.19-49.32c-7.36-2.93-15.13-6.15-23-9.28-2.22-.81-4.44-1.51-6.76-1.92-8.78-1.71-14.22,1.61-17.85,10.69-3.03,7.67-.91,13.82,6.35,18.36,10.09,6.46,29.05,5.35,39.13-2.62h-10.59c-3.53,0-7.16.4-10.59-.2-5.35-.91-10.89-1.92-15.84-4.03-4.64-2.02-4.44-4.94-1.11-8.78,5.45-6.25,13.31-7.16,20.68-3.43,7.16,3.63,13.62,4.03,19.57,1.21h0Zm50.43-11.6c-3.63.5-7.06-.1-8.27,1.31-3.33,3.73-7.06,5.35-11.8,5.55-1.41.1-2.72,1.31-5.55,2.93,4.64,2.22,7.87,3.73,11.09,5.24,2.82,1.31,4.64.2,6.15-2.32,2.32-3.93,4.94-7.56,8.37-12.71h0Z"/>
    <path class="cls-20" d="m1025.63,1244.34c-3.43-14.52-3.43-28.14,9.78-39.13,10.09,17.25,25.72,21.89,43.57,20.48,6.25,12.71,12.61,25.52,19.16,38.83-13.82,8.57-15.84,24.41-19.67,39.24-.91,3.73-2.62,4.84-6.15,4.84-10.99-.1-18.56-5.85-24.41-14.42-2.22-3.13-3.93-6.66-5.65-9.68-6.35.71-12.61,1.61-18.86,1.82-7.77.3-14.32-3.23-19.97-8.17-1.11-.91-1.41-3.63-1.11-5.24,2.52-10.69,9.48-18.26,17.95-24.71,1.82-1.21,3.53-2.52,5.35-3.83h0Z"/>
    <path class="cls-20" d="m1269.61,1182.62c-4.24-.3-8.47-.71-12.71-1.01-.1-.5-.2-1.11-.3-1.61,5.65-5.65,9.99-12.61,19.87-12.81,9.48-.2,18.86-1.82,28.34-2.93,3.23-.4,4.44.81,4.34,4.24-.1,2.93.5,5.95,1.21,8.88,1.01,4.24,4.14,4.03,7.16,2.42,4.54-2.52,8.98-5.24,13.21-8.17,4.34-3.03,7.77-2.72,11.3,1.41,5.24,6.05,10.99,11.8,16.34,17.75,4.24,4.64,5.85,4.74,9.58-.5,1.61-2.22,3.13-4.64,4.94-7.36,9.38,6.86,18.36,13.72,27.54,20.07,2.72,1.92,6.05,2.82,9.08,4.14.4-3.23.91-6.35,1.21-9.58.1-1.41-.1-2.93-.2-5.35,9.38,5.55,18.96,10.09,26.93,16.34,5.14,4.03,7.67,10.99,7.56,19.57-3.63-1.61-6.56-2.62-9.28-4.03-5.14-2.72-10.09-6.05-15.43-8.37-5.45-2.32-7.56-.2-6.46,5.65.3,1.61.91,3.23,1.31,4.84.3,1.41.61,2.93,1.11,5.55-4.14-2.82-7.46-5.04-10.59-7.36-8.57-6.25-17.15-12.41-25.52-18.86-3.03-2.32-5.04-1.82-7.06,1.01-2.22,3.13-4.54,6.15-7.26,9.78-6.15-6.76-12-13.21-17.85-19.57-10.09-10.89-10.19-10.89-22.79-2.82-3.93,2.52-8.07,4.84-12.1,7.16-.71.4-1.51.4-3.03.71,0-3.13.1-5.95,0-8.67-.2-7.06-2.42-9.28-9.08-9.68-.4,0-.71-.1-1.11-.1-7.36-.1-14.73-.2-22.09-.2-2.72-.2-5.45-.4-8.17-.5h0Z"/>
    <path class="cls-2" d="m1372.09,1158.61c7.26,5.35,14.12,10.39,21.08,15.43,1.31,1.01,2.82,1.92,4.24,2.72,3.83,2.02,5.75.71,5.45-3.63-.1-1.92-.61-3.83-.81-5.45,19.97,9.99,40.04,19.97,60.01,29.96-5.55,9.78-11.4,11.3-19.47,6.96-7.06-3.73-14.02-7.87-20.98-11.9-1.31-.71-2.42-2.12-3.73-2.52-3.43-.81-7.26-2.32-10.29-1.41-3.73,1.11-3.13,5.35-2.82,8.78,0,.4-.1.91-.3,1.92-7.77-5.75-15.33-11.2-22.9-16.74-1.82-1.31-3.63-2.32-5.45-3.63-2.93-2.12-5.35-1.41-7.46,1.11-1.92,2.32-3.63,4.84-5.75,7.67-3.83-4.14-7.56-8.17-11.4-12-3.33-3.33-6.46-6.96-10.29-9.58-2.02-1.41-5.85-1.71-8.17-.71-5.65,2.32-10.89,5.65-16.34,8.57-4.03-16.04-5.75-17.15-22.79-14.42-4.84.81-9.58,1.82-14.32,2.32-3.33.4-6.76.1-10.09-1.01,16.04-5.85,31.97-11.8,48.72-17.95,1.01,3.13,2.22,5.75,2.93,8.57,1.01,4.03,3.33,4.84,6.66,3.13,3.43-1.82,6.86-3.63,9.78-6.05,3.63-3.03,5.95-2.12,8.78.91,4.74,5.04,9.68,9.78,14.63,14.52,4.44,4.24,5.04,4.14,8.57-1.11.71-1.31,1.41-2.62,2.52-4.44h0Z"/>
    <path class="cls-20" d="m1562.32,1164.86c-6.66,7.46-13.31,15.03-19.97,22.59-2.52-1.61-4.74-3.03-7.56-4.74,2.72-4.54,5.24-8.88,7.87-13.31,9.58-15.94,19.06-31.97,28.85-47.81,1.41-2.22,3.73-4.24,6.15-5.35,7.67-3.53,15.63-6.56,24.61-10.19,0,9.78,0,18.46-.1,27.03,0,1.01-.81,2.12-1.51,3.03-14.73,19.37-29.45,38.73-44.28,58-.3.4-.71.71-1.31,1.11-1.92-1.21-3.83-2.42-5.95-3.73,4.84-8.88,9.48-17.35,14.12-25.92.5-.91,1.01-1.82,1.61-2.72-.2-.1-.5-.2-.71-.4-.61.91-1.21,1.61-1.82,2.42h0Z"/>
    <path class="cls-2" d="m1535.79,1203.7c-6.05-4.03-12.1-8.17-18.16-12.2-1.51-1.01-3.03-2.02-4.94-3.33,2.02-3.23,3.83-6.25,5.95-9.68,15.84,10.09,31.27,19.87,47.3,30.06-2.42,3.23-4.54,6.15-6.76,9.08-8.07-4.74-15.84-9.38-23.4-13.92h0Z"/>
    <path class="cls-2" d="m1514.91,1233.15c1.41-2.42,2.82-4.84,4.14-7.26,7.87,3.43,15.63,6.96,24.41,10.79.5,3.93-2.02,7.26-6.35,9.38-4.64,2.22-10.39.81-14.02-3.43-2.72-2.93-5.24-6.05-8.17-9.48h0Z"/>
    <path class="cls-2" d="m1458.73,1288.22c11.8-5.55,20.98-1.21,29.55,4.54,5.14,3.53,6.46,9.08,4.74,15.73-8.17-11.8-20.68-15.94-34.29-20.27h0Z"/>
    <path class="cls-2" d="m1541.94,1214.99c2.72,1.51,5.04,2.93,7.46,4.14,3.33,1.61,4.44,4.84,3.13,7.56-1.01,2.02-4.24,4.14-6.46,4.14-3.33,0-6.76-1.51-10.09-2.72-4.34-1.61-8.67-3.53-14.02-5.75,7.67-2.12,17.05,3.73,19.97-7.36h0Z"/>
    <path class="cls-10" d="m1269.61,1182.62c2.72.1,5.45.3,8.17.4-2.72-.1-5.45-.2-8.17-.4Z"/>
    <path class="cls-10" d="m1299.87,1183.32c.4,0,.71.1,1.11.1-.4-.1-.81-.1-1.11-.1Z"/>
    <path class="cls-19" d="m1211.21,1327.66c.2.1.3.3.5.4h-.3c-.1-.1-.1-.2-.2-.4h0Z"/>
    <path class="cls-3" d="m1411.83,292.4c0,6.66-5.45,12.1-12.1,12.1s-12.31-5.65-12.2-12.51c.1-6.66,5.55-11.9,12.31-11.8,6.76.1,12.1,5.45,12,12.2h0Z"/>
    <path class="cls-3" d="m1238.45,292c.1-6.76,5.45-11.9,12.31-11.8,6.96.1,12.2,5.55,12,12.61-.2,6.56-6.05,11.9-12.61,11.7-6.56-.3-11.8-5.95-11.7-12.51h0Z"/>
    <path class="cls-3" d="m1099.15,333.96c-6.86,0-12.1-5.14-12.1-11.9s5.35-12.51,12.31-12.41c6.46.1,12.1,5.85,12,12.31-.1,6.76-5.35,12-12.2,12h0Z"/>
    <path class="cls-23" d="m1546.58,334.46c-6.15.2-12.41-5.85-12.61-12.1-.2-6.35,5.45-12.2,12-12.61,6.46-.3,12.71,5.55,12.81,12.31.1,6.05-5.85,12.2-12.2,12.41h0Z"/>
    <path class="cls-23" d="m1323.27,643.91c3.33,7.67,6.15,14.32,8.98,20.98.5,1.11.71,2.72.3,3.73-2.82,6.96-5.85,13.82-9.28,21.99-3.33-8.17-6.25-15.23-9.08-22.29-.3-.81-.1-2.02.2-2.93,2.72-6.86,5.65-13.62,8.88-21.48h0Z"/>
    <path class="cls-11" d="m1290.09,645.82c1.11,2.62,1.71,4.03,2.32,5.35,6.15,14.32,6.05,15.73-2.62,30.46-2.52-5.95-4.94-11.4-7.06-16.94-.4-1.01.3-2.52.81-3.73,1.92-4.74,4.03-9.48,6.56-15.13Z"/>
    <path class="cls-11" d="m1359.08,646.03c2.52,6.05,4.74,11.3,6.86,16.54.3.81.4,2.02.1,2.82-2.12,5.24-4.34,10.49-6.96,16.64-2.62-6.05-4.94-11.2-7.06-16.34-.4-.91-.4-2.32,0-3.23,2.02-5.24,4.34-10.39,7.06-16.44h0Z"/>
    <path class="cls-11" d="m1413.14,1065.51c-5.95,2.82-12.51,2.42-19.57-1.21-7.36-3.73-15.23-2.82-20.68,3.43-3.33,3.83-3.53,6.76,1.11,8.78,4.94,2.22,10.49,3.13,15.84,4.03,3.43.61,7.06.2,10.59.2h10.59c-10.09,7.87-29.05,8.98-39.13,2.62-7.16-4.64-9.28-10.69-6.35-18.36,3.53-9.08,8.98-12.41,17.85-10.69,2.32.4,4.54,1.11,6.76,1.92,7.77,3.13,15.63,6.35,23,9.28h0Z"/>
    <path class="cls-11" d="m1463.47,1053.91c-3.43,5.14-6.05,8.78-8.37,12.61-1.51,2.52-3.33,3.63-6.15,2.32-3.23-1.51-6.46-3.03-11.09-5.24,2.82-1.51,4.14-2.82,5.55-2.93,4.84-.2,8.57-1.82,11.8-5.55,1.21-1.21,4.64-.71,8.27-1.21h0Z"/>
    <path class="cls-15" d="m1308.85,1114.84c.5-.3,1.01-.61,1.51-.81.1.2.2.4.4.61-.4.3-.91.61-1.31.91-.2-.2-.4-.5-.61-.71h0Z"/>
    <path class="cls-15" d="m1562.32,1164.86c.61-.81,1.11-1.51,1.71-2.22.2.1.5.2.71.4-.5.91-1.11,1.82-1.61,2.72-.2-.3-.5-.61-.81-.91h0Z"/>
  </g>
  <g>
    <path d="m1358.57,1760.94c-21.85,63.66-43.7,127.32-65.75,191.58h-55.77c-21.31-62.17-42.83-124.96-64.33-187.69-.61,0-1-.07-1.35.02-.32.08-.68.27-.85.53-.22.31-.37.74-.37,1.12-.02,61.62-.01,123.24-.01,185.77h-56.7v-263.06c9.03-2.47,62.85-3.22,84.61-1.12,21.65,65.15,43.47,130.84,65.91,198.37,1.95-4.31,3.45-6.97,4.4-9.81,13.47-40.37,26.8-80.8,40.3-121.16,6.87-20.55,14.13-40.97,20.95-61.54,1.47-4.44,3.79-6.71,8.44-6.71,25.82.02,51.63,0,77.16,0,2.84,9.09,3.5,250.69.89,265.31h-54.71c-.75-15.68-.23-31.45-.32-47.19-.09-16.3-.02-32.61-.02-48.92v-95.33c-.82-.06-1.65-.13-2.47-.19Z"/>
    <path d="m2410.08,2091.29c4.16-.26,7.65-.65,11.13-.66,17.1-.06,34.21.3,51.3-.18,7.64-.21,12.08,2.08,15.79,9.16,17.25,32.91,34.99,65.57,52.86,98.15,14.53,26.5,29.49,52.77,45.19,80.8,2.51-13.65.95-25.78,1.24-37.78.29-12.32.07-24.65.07-36.97v-75.14c0-12.23,0-24.45,0-37.36h57.37v263.07c-2.7.39-5.34,1.09-7.98,1.1-18.3.1-36.6-.16-54.88.18-6.34.12-9.92-1.86-13.05-7.68-16.85-31.27-34.33-62.21-51.42-93.36-14.18-25.84-28.11-51.81-42.16-77.72-1.64-3.03-3.3-6.06-6.73-8.76v184.58c-9.4,3.48-46.89,3.92-58.71,1.03v-262.46Z"/>
    <path d="m949.64,1952.83h-71.13c-34.31-62.47-68.82-125.3-103.33-188.13-2.53,20.59-2.37,40.94-2.4,61.27-.03,21.07,0,42.14,0,63.22s0,41.29,0,62.41c-9.71,3.03-19.21,1.2-28.53,1.52-9.07.31-18.15.07-27.99.07v-264.7c2.42-.4,5-1.19,7.59-1.21,18.3-.11,36.6.23,54.88-.22,7.14-.18,10.71,3.07,13.85,8.8,13.11,23.91,26.71,47.56,39.75,71.51,11.31,20.76,21.97,41.87,33.18,62.68,7.52,13.95,15.49,27.65,23.33,41.42.48.85,1.55,1.36,3.88,3.32v-185.14c10.02-2.99,43.85-3.37,56.91-.87v264.07Z"/>
    <path d="m1438.94,2252.91c-12.92,0-26.02,0-39.11,0-5.92,0-11.85,0-19.12,0v102.25c-19.68.79-38.05.26-57.15.32v-264.17c4.28-.25,8.12-.68,11.96-.68,48.55-.05,97.1-.01,145.65-.04,17.11,0,33.08,3.8,46.42,14.99,9.49,7.96,16.41,17.7,19.95,29.98,3.75,13.01,7.12,26.09,5.95,39.58-1.64,18.85-4.29,37.73-17.52,52.75-4.06,4.61-8.94,8.68-14.01,12.17-4.8,3.31-10.35,5.54-16.57,8.76,18.08,35.07,36.09,70.02,54.49,105.71-2.98.36-5.62.95-8.26.96-16.71.09-33.44-.24-50.14.18-6.55.17-10.09-2.19-12.88-7.98-7.04-14.56-14.56-28.89-22.09-43.21-8.77-16.67-17.74-33.23-27.56-51.59Zm-58.19-44.6c1.66.62,2.75,1.38,3.84,1.39,24.9.08,49.87,1.8,74.61-2.67,11.87-2.14,21.29-8.53,24.18-20.1,3.38-13.5,4.3-27.74-6.6-39.16-2.62-2.75-6.43-4.69-10.05-6.08-4.37-1.67-9.09-3.17-13.7-3.33-21.39-.73-42.79-1-64.19-1.33-2.62-.04-5.25.57-8.1.9v70.38Z"/>
    <path d="m1723.51,1903.02v-60.31h-71.03v-46.43h128.09v156c-2.65.27-5.65.85-8.65.85-44.15.06-88.31.72-132.44-.27-19.58-.44-39.17-3.56-56.65-14.3-24.65-15.16-38.76-37.44-46.06-64.89-3.08-11.6-4.71-23.19-4.73-35.17-.01-6.24-2.31-12.51-2.06-18.71.54-13.38,1.14-26.88,3.38-40.05,3.33-19.51,9.36-38.32,21.49-54.44,13.79-18.34,31.94-30.58,54.46-35.08,11.15-2.23,22.76-2.81,34.17-2.91,40.96-.33,81.93-.13,122.9-.13h13.99v46.38h-11.86c-36.99,0-73.99.5-110.97-.15-33.83-.6-57.47,22.65-60.67,55.53-1.22,12.54-2.53,25.14-2.44,37.71.11,16.15,2.58,31.97,9.22,47.09,8.09,18.44,21.99,29.32,41.63,30.3,24.6,1.22,49.3.25,73.96.17,1.12,0,2.24-.61,4.27-1.2Z"/>
    <path d="m700.51,2248.8c18.36,35.18,36.38,69.71,55.1,105.57-4.81.53-7.79,1.12-10.78,1.14-14.72.1-29.5-.71-44.16.31-9.63.67-14.31-3.35-18.27-11.19-13.62-26.92-27.95-53.48-41.35-80.51-4.05-8.17-8.84-12.02-18.24-11.39-11.49.77-23.07.13-34.61.21-3.86.03-7.71.39-12.79.67v101.25h-55.08v-263.45c3.83-.29,7.28-.77,10.72-.78,48.55-.05,97.1.03,145.66-.08,14.61-.03,28.23,3.32,40.74,10.81,18.55,11.1,25.67,29.3,29.8,49.13,3.98,19.07,1.6,38.1-3.67,56.34-4.12,14.26-13.56,25.88-26.77,33.64-4.74,2.78-9.8,5.03-16.29,8.33Zm-125.12-39.02c22.37,0,42.95.16,63.53-.11,5.05-.06,10.11-1.34,15.11-2.34,15.86-3.18,24.6-12.65,26.43-28.97,1.73-15.51-3.73-31.17-14.81-35.03-5.18-1.8-10.39-4.67-15.66-4.83-24.14-.75-48.31-.71-72.47-.91-.28,0-.57.49-1.67,1.48-.11,1.49-.43,3.78-.43,6.07-.04,20.99-.02,41.99-.02,64.65Z"/>
    <path d="m174.12,1952.41v-48c4.97,0,9.24,0,13.51,0,43.77,0,87.55-.18,131.32.12,10.65.07,19.36-2.86,26.31-10.97,12.63-14.73,8.24-36.2-6.45-45.18-6.57-4.02-13.45-6.2-21.32-6.13-25.86.24-51.73,0-77.6.11-24.14.1-44.85-7.42-61.54-25.56-9.03-9.82-13.91-21.49-15.56-34.06-2.31-17.54-2.52-35.46,4.17-52.3,8.09-20.38,23.6-33.49,44.32-39.77,8.18-2.48,17.12-3.29,25.73-3.34,51.73-.29,103.46-.15,155.19-.15h14.56v46.38h-13.4c-42.58,0-85.16-.05-127.74.07-4.7.01-9.63.32-14.06,1.73-16.01,5.09-22.31,15.78-20.81,34.09,1.06,12.89,11.45,23.05,26.08,25.02,5.89.79,11.88,1.09,17.83,1.12,25.86.12,51.75-.6,77.59.23,26.84.86,47.42,13.42,60.23,37.28,3.29,6.12,6.06,13.17,6.61,19.98,1.4,17.31,2.9,34.63-2.85,51.86-4.88,14.62-13.65,25.43-25.92,34.06-13.39,9.41-28.74,13.77-44.58,13.93-55.7.58-111.42.21-167.13.17-1.15,0-2.29-.35-4.48-.7Z"/>
    <path d="m2385.19,2221.29c.77,22.85-1.54,43.74-7.97,63.69-10.41,32.3-31.31,55.62-64.33,65.89-39.61,12.33-79.89,12.19-119.3.07-32.11-9.88-54.17-32.33-63.97-64.64-9.97-32.85-12.18-66.42-5.84-100.62,2.84-15.29,6.18-30.03,13.53-43.74,12.95-24.17,33.15-39.45,58.9-47.87,29.72-9.72,60.31-9.12,90.63-5.4,18.68,2.29,37.03,7.93,52.75,19.49,19.44,14.3,31.91,33.23,38.37,56.4,5.34,19.17,7.85,38.64,7.24,56.73Zm-203.37,2.76c-.47,18.13.01,34.89,6.06,51.34,6.54,17.81,19.16,28.81,36.11,34.87,18.77,6.71,38.39,5.72,57.13.28,16.38-4.76,28.82-14.99,36.23-31.67,5.97-13.46,6.99-27.49,8.07-41.38,1.35-17.27,1.18-34.77-2.27-52.01-5.5-27.43-18.5-46.09-50.59-52.06-13.53-2.52-26.58-2.32-39.92.17-20.59,3.83-35.31,14.61-43.49,34.29-7.69,18.5-8.11,37.78-7.32,56.18Z"/>
    <path d="m1033.29,2228.52c-.25-27.94,2.36-49.72,9.82-70.88,10.84-30.76,31.6-51.44,62.17-62.2,16.89-5.95,34.38-8.92,52.4-8.62,17.42.29,34.73.01,52.06,3.63,40.89,8.55,68.16,32.09,79.86,72,9.43,32.15,11.04,64.92,5.06,98.34-3.76,20.99-9.68,40.36-22.63,57.46-12.1,15.99-27.73,26.97-46.76,32.6-39.69,11.74-79.83,12.78-119.23-.22-35.16-11.6-56.73-36.52-66.2-72.76-4.77-18.24-6.04-36.51-6.56-49.34Zm206.18-6.88c-1.18-12.14-1.65-24.41-3.69-36.4-3.05-17.96-10-34.2-27.13-43.35-23.49-12.54-48.18-13.47-73.31-5.71-15.12,4.67-26.3,13.92-32.39,29.01-6.15,15.23-8.7,31.12-9.29,47.33-.63,17.39.11,34.67,3.76,51.89,4.42,20.84,14.61,36.62,35.07,44.14,21.36,7.85,43.01,8.59,64.6.48,18.21-6.84,30.01-19.06,35.46-38.28,4.58-16.18,6.72-32.33,6.92-49.1Z"/>
    <path d="m361.68,2358.76c-19.64,1.24-38.28-1.35-56.71-6.9-37.07-11.16-59.08-36.37-69.43-72.78-3.02-10.64-4.9-21.43-4.98-32.62-.06-9.43-2.74-18.96-1.98-28.26,1.99-24.27,3.07-48.85,14.37-71.33,14.79-29.43,38.32-47.49,70.19-55.39,27.06-6.7,54.46-6.13,81.65-2.93,23.89,2.82,46.25,11.63,63.98,28.51,14.23,13.56,23.37,30.67,28.25,49.88,2.72,10.72,4.86,21.45,4.93,32.64.05,9.43,2.66,18.94,1.98,28.26-1.55,21.14-2.43,42.65-10.32,62.65-10.59,26.85-28.6,46.97-56.07,57.76-21.36,8.39-43.42,12.04-65.86,10.49Zm71.82-136.73c1.69-16.38-1.13-33.09-6.32-49.35-5.57-17.47-15.91-30.7-34.53-35.95-16.51-4.65-32.78-6.87-50.15-3.4-22.9,4.59-39.65,15.26-46.67,38.32-10.3,33.82-9.8,67.97-1.06,101.85,4.28,16.61,16.01,28.65,31.87,34.71,21.16,8.09,42.97,8.78,64.89,1.44,18.42-6.16,29.83-18.59,35.62-36.72,5.21-16.3,7.53-32.99,6.35-50.92Z"/>
    <path d="m2274.96,1687.19v46.38h-12.27c-27.06,0-54.11-.27-81.17.08-23.1.3-40.08,10.67-49.57,32.23-3.98,9.03-8.09,18.04-7.04,29.37h150.05c1.19,15.83.5,30.69.56,46.86h-150.06c-2.63,14.56,2.72,26.13,8.95,36.87,9.85,16.97,25.23,25.48,45.11,25.44,27.06-.05,54.11-.01,81.17-.01,4.35,0,8.7,0,13.99,0v48.77c-4.15,0-8.03,0-11.9,0-30.24,0-60.49.49-90.71-.21-15.31-.35-30.7-2.02-45.38-7.28-29.53-10.58-46.79-32.72-56.75-61.18-4.53-12.95-8.06-26.24-7.84-40.38.16-10.6-2.59-21.3-1.95-31.83,1.76-28.82,5.35-57.35,21.32-82.63,12.89-20.42,31.39-33.25,54.51-38.84,10.64-2.57,21.9-3.31,32.9-3.47,30.63-.45,61.27-.15,91.91-.15,4.34,0,8.68,0,14.18,0Z"/>
    <path d="m781.23,2354.87v-263.37c4.14-.32,7.92-.86,11.71-.87,50.1-.06,100.19.13,150.29-.1,28.75-.13,62.41,18.86,69.41,57.74,3.84,21.35,4.31,42.63-1.73,63.07-9.44,31.96-35.89,48.88-65.23,49.59-31.39.76-62.82.17-94.23.17-3.91,0-7.83,0-13.22,0v93.77h-57Zm57.47-141.9c1.31.56,2.39,1.42,3.46,1.41,25.82-.21,51.7.47,77.44-1.12,19.67-1.21,28.65-10.05,32.41-28.59,3.98-19.59-4.49-40.47-25.16-44.55-6.18-1.22-12.41-2.88-18.64-3.01-19.89-.39-39.79-.17-59.68-.12-3.08,0-6.15.38-9.82.62v75.35Z"/>
    <path d="m1981.11,1687.83h57.29c0,4.87,0,9.12,0,13.36,0,56.05.05,112.1-.02,168.14-.04,29.82-13.59,52.15-38.74,67.51-17.11,10.45-35.79,16.4-55.91,17.74-8.25.55-16.54,2.68-24.68,2.13-28.13-1.9-55.84-5.87-79.47-23.37-20.12-14.9-32.75-33.7-32.87-59.79-.29-59.96-.96-119.92-1.44-179.88-.01-1.53.37-3.06.77-6.24,18.99-.42,37.78-.28,58.04-.08,0,5.48,0,9.73,0,13.99,0,54.46.36,108.92-.2,163.37-.19,18.55,7.67,31.67,23.74,38.71,22.13,9.7,45.08,10.5,67.7.37,18-8.06,25.67-22.67,25.73-41.62.16-51.28.06-102.55.06-153.83,0-6.64,0-13.29,0-20.51Z"/>
    <path d="m509.38,1889.19c-8.71,21.52-17.25,42.6-25.76,63.62h-60.92c1.86-5.75,3.1-10.92,5.17-15.75,15.83-36.94,31.95-73.76,47.73-110.73,17.18-40.24,34.18-80.55,51.09-120.91,7.61-18.17,7.43-18.24,26.54-18.24,9.95,0,19.92.46,29.83-.15,7.32-.45,10.76,2.97,13.31,9.09,14.24,34.24,28.59,68.43,43.01,102.59,17.15,40.62,34.43,81.19,51.61,121.79,3.39,8.01,6.71,16.05,9.8,24.17.81,2.12.67,4.6,1.07,7.73h-59.3c-8.43-20.78-16.99-41.86-25.65-63.23h-107.51Zm17.47-43.42h71.75c-8.28-27.38-31.68-82.59-36.87-87.85-11.37,28.64-22.79,57.41-34.88,87.85Z"/>
    <path d="m1846.81,2355.07h-60.96c-3.83-9.26-7.89-19-11.9-28.76-3.91-9.49-8.05-18.89-11.55-28.53-1.8-4.94-4.72-6.73-9.72-6.71-30.63.09-61.27.15-91.9-.05-5.75-.04-8.71,2.52-10.67,7.49-5.64,14.27-11.48,28.47-17.19,42.71-1.75,4.36-3.34,8.78-5.19,13.65h-61.92c4.19-10.16,7.92-19.5,11.88-28.74,13.19-30.73,26.72-61.32,39.64-92.17,18.89-45.12,37.42-90.4,55.95-135.67,1.62-3.95,3.22-7.51,7.94-7.54,18.23-.13,36.46-.05,54.89-.05,36.92,88.17,73.41,175.31,110.71,264.36Zm-138.91-193.22c-.9-.25-1.8-.51-2.7-.76-11.7,28.87-23.41,57.74-35.36,87.23h72.57c-11.8-29.59-23.15-58.03-34.5-86.47Z"/>
    <path d="m222.62,2354.92c-4.15.22-8.03.6-11.91.6-35.41.05-70.82.23-106.23-.04-24.83-.19-47.72-7.1-66.59-23.66-14.51-12.74-24.17-29.16-29.35-47.74-7.25-26-10.42-52.39-7.43-79.56,1.95-17.68,3.8-35.19,10.54-51.81,9.21-22.71,23.87-40.73,45.99-51.83,12.41-6.23,25.83-10.03,39.75-10.15,38.99-.34,77.98-.14,116.97-.08,2.67,0,5.33.65,9.17,1.15,0,11.08.05,21.73-.02,32.38-.03,3.87-.34,7.74-.57,12.8-4.59,0-8.45,0-12.32,0-26.26,0-52.52-.33-78.77.18-8.97.18-18.04,1.89-26.82,3.94-20.52,4.81-30.74,20.1-35.91,38.85-6.5,23.58-6.24,47.76-3.11,71.87,1.48,11.43,4.72,22.48,10.67,32.39,8.24,13.73,21.18,20.85,36.6,23.48,5.83,1,11.87,1.08,17.81,1.1,30.21.1,60.42.05,91.54.05v46.06Z"/>
    <path d="m1881.62,2354.68v-217.41h-88.33v-44.61c8.4-2.59,219.25-3.18,233.33-.51v44.43h-87.3c-.78,15.06-.31,29.24-.39,43.38-.09,14.71-.02,29.42-.02,44.13v87.07c0,14.27,0,28.54,0,43.52h-57.29Z"/>
    <path d="m2301.75,1687.9h56.65v13.08c0,47.3-.18,94.59.15,141.89.07,9.78.77,19.91,3.38,29.26,5.34,19.15,23.53,32.08,43.46,32.24,21.87.18,43.74.04,65.6.04,4.33,0,8.66,0,13.88,0v48.77h-9.66c-27.43,0-54.88.45-82.3-.19-14.13-.33-28.25-2.32-41.54-7.96-24.67-10.45-40.05-28.87-46-54.76-2.36-10.29-4-20.98-4.08-31.51-.4-53.25-.2-106.51-.16-159.77,0-3.48.38-6.96.62-11.1Z"/>
    <path d="m1512.34,1952.58h-55.95v-263.35c9.03-2.58,43.72-2.91,55.95-.43v263.78Z"/>
    <path d="m2102.14,2354.71h-54.64c-2.4-8.99-3.41-237.89-1.2-261.97,8.34-2.66,42.44-3.14,55.83-.64v262.62Z"/>
  </g>
</svg>