<svg width="1188" height="1500" viewBox="0 0 1188 1500" fill="none" xmlns="http://www.w3.org/2000/svg">
<path d="M1117.63 663.469C1174.15 641.777 1202.39 578.374 1180.69 521.853C1158.99 465.335 1095.59 437.105 1039.07 458.801L70.3631 830.647C13.8415 852.343 -14.3851 915.75 7.31092 972.268C29.0069 1028.79 92.4098 1057.02 148.927 1035.32L1117.63 663.469Z" fill="#0B7BB5"/>
<path d="M898.89 320.231C923.516 264.924 898.642 200.131 843.335 175.505C788.028 150.88 723.235 175.753 698.61 231.06L276.549 1179.02C251.928 1234.32 276.802 1299.12 332.109 1323.75C387.416 1348.37 452.209 1323.49 476.83 1268.19L898.89 320.231Z" fill="#FFD038"/>
<path d="M1017.11 1060.79C1072.41 1085.42 1137.21 1060.54 1161.83 1005.24C1186.46 949.928 1161.58 885.136 1106.28 860.51L158.322 438.45C103.015 413.824 38.218 438.702 13.5924 494.005C-11.0289 549.316 13.8447 614.105 69.1517 638.731L1017.11 1060.79Z" fill="#F25A38"/>
<path d="M501.645 831.296L784.89 957.405L673.78 667.95L390.539 541.846L501.645 831.296Z" fill="#DF5027"/>
<path d="M301.359 742.126L584.6 868.231L874.055 757.121L590.814 631.012L301.359 742.126Z" fill="#939598"/>
<path d="M379.949 946.796L669.404 835.682L795.509 552.445L506.054 663.56L379.949 946.796Z" fill="#2A491B"/>
<path d="M442.815 805.474L643.086 894.637L732.249 694.366L531.978 605.203L442.815 805.474Z" fill="#6E786C"/>
<path d="M584.612 868.226L669.39 835.689L706.324 752.724L673.787 667.946L590.826 631.012L506.048 663.558L469.105 746.514L501.652 831.292L584.612 868.226Z" fill="#394B39"/>
<path d="M432.978 231.912C366.231 231.912 312.121 286.022 312.121 352.769C312.121 419.516 366.231 473.63 432.978 473.63C499.725 473.63 553.835 419.521 553.835 352.769C553.835 286.017 499.725 231.912 432.978 231.912Z" fill="#0B7BB5"/>
</svg>
