<svg width="444" height="549" viewBox="0 0 444 549" fill="none" xmlns="http://www.w3.org/2000/svg">
<path d="M272.619 40.1856C303.095 -2.60097 362.171 -12.145 404.569 18.8685C446.968 49.8821 456.633 109.709 426.157 152.496L172.058 509.24C141.582 552.027 82.5059 561.571 40.1075 530.557C-2.29079 499.544 -11.956 439.717 18.5197 396.93L272.619 40.1856Z" fill="#0B7BB5"/>
<path d="M272.619 40.1856C303.095 -2.60097 362.171 -12.145 404.569 18.8685C446.968 49.8821 456.633 109.709 426.157 152.496L173.059 507.835C142.583 550.622 83.5071 560.166 41.1088 529.152C-1.28955 498.139 -10.9548 438.312 19.5209 395.525L272.619 40.1856Z" fill="#0B7BB5"/>
</svg>
