<svg width="202" height="199" viewBox="0 0 202 199" fill="none" xmlns="http://www.w3.org/2000/svg">
<path d="M190.035 84.7437C199.645 81.0554 204.446 70.2747 200.757 60.6642C197.068 51.0543 186.287 46.2542 176.676 49.9432L11.9641 113.17C2.35352 116.859 -2.44594 127.64 1.2431 137.25C4.93215 146.86 15.7128 151.661 25.3226 147.971L190.035 84.7437Z" fill="#0B7BB5"/>
<path d="M152.843 26.3817C157.03 16.9776 152.801 5.96059 143.397 1.77342C133.993 -2.41376 122.976 1.81559 118.788 11.2196L47.024 172.404C42.8375 181.808 47.0669 192.826 56.4709 197.013C65.875 201.199 76.8919 196.97 81.0784 187.566L152.843 26.3817Z" fill="#FFD038"/>
<path d="M172.944 152.302C182.348 156.489 193.365 152.259 197.553 142.855C201.74 133.451 197.51 122.434 188.106 118.247L26.9219 46.4828C17.5179 42.2956 6.5002 46.5257 2.31302 55.929C-1.87343 65.3338 2.35592 76.3501 11.76 80.5373L172.944 152.302Z" fill="#F25A38"/>
<path d="M85.295 113.28L133.456 134.723L114.564 85.5054L66.4033 64.0635L85.295 113.28Z" fill="#DF5027"/>
<path d="M51.2422 98.1183L99.4027 119.56L148.62 100.668L100.459 79.2251L51.2422 98.1183Z" fill="#939598"/>
<path d="M64.6025 132.919L113.82 114.026L135.262 65.8662L86.0445 84.7594L64.6025 132.919Z" fill="#2A491B"/>
<path d="M75.2948 108.889L109.348 124.05L124.508 89.997L90.4555 74.8363L75.2948 108.889Z" fill="#6E786C"/>
<path d="M99.4047 119.56L113.82 114.027L120.1 99.9203L114.567 85.5051L100.461 79.2251L86.0461 84.759L79.7646 98.8644L85.2986 113.279L99.4047 119.56Z" fill="#394B39"/>
<path d="M73.6191 11.3645C62.2698 11.3645 53.0693 20.565 53.0693 31.9143C53.0693 43.2636 62.2698 52.4646 73.6191 52.4646C84.9684 52.4646 94.1688 43.2643 94.1688 31.9143C94.1688 20.5642 84.9684 11.3645 73.6191 11.3645Z" fill="#0B7BB5"/>
</svg>
