<svg width="32" height="32" viewBox="0 0 32 32" fill="none" xmlns="http://www.w3.org/2000/svg">
<path d="M23.1553 24.3431C23.2601 27.9617 28.5404 27.9627 28.6459 24.3432C28.5411 20.7168 23.2606 20.7159 23.1553 24.3431Z" fill="white"/>
<path d="M11.4414 24.3434C11.5477 27.9641 16.8207 27.9603 16.9264 24.3435C16.8214 20.7197 11.5483 20.7141 11.4414 24.3434Z" fill="white"/>
<path d="M24.734 18.3493C24.5858 18.3489 24.4438 18.2899 24.3391 18.1851C24.2343 18.0803 24.1753 17.9384 24.1748 17.7902V13.4179C24.1753 13.2697 24.2343 13.1278 24.3391 13.023C24.4438 12.9182 24.5858 12.8592 24.734 12.8588H30.0903L29.7046 11.8412C29.5714 11.4998 29.3387 11.2063 29.0365 10.9989C28.7344 10.7915 28.3769 10.6797 28.0104 10.6782H21.9551C21.7172 10.6782 21.4816 10.725 21.2618 10.816C21.042 10.907 20.8423 11.0405 20.674 11.2087C20.5058 11.3769 20.3724 11.5766 20.2813 11.7965C20.1903 12.0163 20.1435 12.2519 20.1436 12.4898V24.3431C20.144 24.4913 20.203 24.6332 20.3078 24.738C20.4126 24.8428 20.5545 24.9018 20.7027 24.9023H22.0837C22.0535 24.7174 22.0385 24.5304 22.039 24.3432C22.3123 18.8591 30.2601 19.4428 29.7213 24.9022C29.988 24.9483 30.2616 24.9364 30.5233 24.8672C30.785 24.798 31.0287 24.6731 31.2378 24.5012C31.4469 24.3293 31.6165 24.1143 31.7349 23.8709C31.8534 23.6274 31.918 23.3613 31.9242 23.0907V18.3493H24.734Z" fill="white"/>
<path d="M25.29 17.2316H31.7423C31.7374 17.2067 31.7299 17.1823 31.7199 17.159L30.5122 13.9775H25.29V17.2316Z" fill="white"/>
<path d="M3.79297 24.3433C3.8631 27.9923 9.32928 27.9102 9.27447 24.2686C9.14895 20.7081 3.84655 20.7932 3.79297 24.3433Z" fill="white"/>
<path d="M18.7887 9.70016L14.3548 6.42932C14.3269 6.51876 10.7205 17.6229 10.5584 18.1205C10.462 18.1282 9.47187 18.1203 9.37865 18.1261C9.66397 17.234 13.0901 6.71758 13.3093 6.02665L3.93281 4.93087C3.56221 4.88866 3.18835 4.97504 2.87383 5.17556C2.55932 5.37608 2.32323 5.67856 2.2051 6.03236L0.13076 12.4175C0.0174317 12.7732 0.029423 13.1571 0.164736 13.505C0.300049 13.853 0.550511 14.144 0.874387 14.3297L2.0933 15.0118V18.1261H1.0757C0.927544 18.1266 0.785583 18.1856 0.680822 18.2904C0.576061 18.3951 0.517013 18.5371 0.516576 18.6853V23.2253C0.517873 23.6698 0.695012 24.0957 1.0093 24.41C1.32358 24.7243 1.74948 24.9014 2.19394 24.9027H2.71952C2.68926 24.7179 2.6743 24.5309 2.67478 24.3436C2.78101 19.7141 9.29479 19.0655 10.3236 23.5608C10.3683 23.818 10.3515 23.8683 10.3962 23.5776C10.5951 22.5912 11.1713 21.7214 12.002 21.1536C12.8327 20.5857 13.8522 20.3646 14.8435 20.5373C15.8348 20.7101 16.7195 21.263 17.3092 22.0784C17.8988 22.8938 18.1468 23.9072 18.0003 24.9027H19.1241C18.9463 24.9662 19.0452 18.316 19.0235 18.1262L17.2119 18.1261C17.2175 18.1149 17.2231 18.0982 17.2287 18.087L19.0235 12.5517L19.3645 11.5006C19.4727 11.1783 19.4752 10.8298 19.3716 10.506C19.268 10.1822 19.0638 9.89988 18.7887 9.70016ZM3.21155 18.1261V15.6381L7.63978 18.1261H3.21155Z" fill="white"/>
</svg>
