<svg width="33" height="32" viewBox="0 0 33 32" fill="none" xmlns="http://www.w3.org/2000/svg">
<g clip-path="url(#clip0_1243_63)">
<path d="M23.6553 24.3431C23.7601 27.9617 29.0404 27.9627 29.1459 24.3432C29.0411 20.7168 23.7606 20.7159 23.6553 24.3431Z" fill="#F25A38"/>
<path d="M11.9414 24.3434C12.0477 27.9641 17.3207 27.9603 17.4264 24.3435C17.3214 20.7197 12.0483 20.7141 11.9414 24.3434Z" fill="#F25A38"/>
<path d="M25.234 18.3493C25.0858 18.3489 24.9438 18.2899 24.8391 18.1851C24.7343 18.0803 24.6753 17.9384 24.6748 17.7902V13.4179C24.6753 13.2697 24.7343 13.1278 24.8391 13.023C24.9438 12.9182 25.0858 12.8592 25.234 12.8588H30.5903L30.2046 11.8412C30.0714 11.4998 29.8387 11.2063 29.5365 10.9989C29.2344 10.7915 28.8769 10.6797 28.5104 10.6782H22.4551C22.2172 10.6782 21.9816 10.725 21.7618 10.816C21.542 10.907 21.3423 11.0405 21.174 11.2087C21.0058 11.3769 20.8724 11.5766 20.7813 11.7965C20.6903 12.0163 20.6435 12.2519 20.6436 12.4898V24.3431C20.644 24.4913 20.703 24.6332 20.8078 24.738C20.9126 24.8428 21.0545 24.9018 21.2027 24.9023H22.5837C22.5535 24.7174 22.5385 24.5304 22.539 24.3432C22.8123 18.8591 30.7601 19.4428 30.2213 24.9022C30.488 24.9483 30.7616 24.9364 31.0233 24.8672C31.285 24.798 31.5287 24.6731 31.7378 24.5012C31.9469 24.3293 32.1165 24.1143 32.2349 23.8709C32.3534 23.6274 32.418 23.3613 32.4242 23.0907V18.3493H25.234Z" fill="#F25A38"/>
<path d="M25.79 17.2316H32.2423C32.2374 17.2067 32.2299 17.1823 32.2199 17.159L31.0122 13.9775H25.79V17.2316Z" fill="#F25A38"/>
<path d="M4.29297 24.3433C4.3631 27.9923 9.82928 27.9102 9.77447 24.2686C9.64895 20.7081 4.34655 20.7932 4.29297 24.3433Z" fill="#F25A38"/>
<path d="M19.2887 9.70016L14.8548 6.42932C14.8269 6.51876 11.2205 17.6229 11.0584 18.1205C10.962 18.1282 9.97187 18.1203 9.87865 18.1261C10.164 17.234 13.5901 6.71758 13.8093 6.02665L4.43281 4.93087C4.06221 4.88866 3.68835 4.97504 3.37383 5.17556C3.05932 5.37608 2.82323 5.67856 2.7051 6.03236L0.63076 12.4175C0.517432 12.7732 0.529423 13.1571 0.664736 13.505C0.800049 13.853 1.05051 14.144 1.37439 14.3297L2.5933 15.0118V18.1261H1.5757C1.42754 18.1266 1.28558 18.1856 1.18082 18.2904C1.07606 18.3951 1.01701 18.5371 1.01658 18.6853V23.2253C1.01787 23.6698 1.19501 24.0957 1.5093 24.41C1.82358 24.7243 2.24948 24.9014 2.69394 24.9027H3.21952C3.18926 24.7179 3.1743 24.5309 3.17478 24.3436C3.28101 19.7141 9.79479 19.0655 10.8236 23.5608C10.8683 23.818 10.8515 23.8683 10.8962 23.5776C11.0951 22.5912 11.6713 21.7214 12.502 21.1536C13.3327 20.5857 14.3522 20.3646 15.3435 20.5373C16.3348 20.7101 17.2195 21.263 17.8092 22.0784C18.3988 22.8938 18.6468 23.9072 18.5003 24.9027H19.6241C19.4463 24.9662 19.5452 18.316 19.5235 18.1262L17.7119 18.1261C17.7175 18.1149 17.7231 18.0982 17.7287 18.087L19.5235 12.5517L19.8645 11.5006C19.9727 11.1783 19.9752 10.8298 19.8716 10.506C19.768 10.1822 19.5638 9.89988 19.2887 9.70016ZM3.71155 18.1261V15.6381L8.13978 18.1261H3.71155Z" fill="#F25A38"/>
</g>
<defs>
<clipPath id="clip0_1243_63">
<rect width="32" height="32" fill="white" transform="translate(0.5)"/>
</clipPath>
</defs>
</svg>
