<svg width="33" height="32" viewBox="0 0 33 32" fill="none" xmlns="http://www.w3.org/2000/svg">
<g clip-path="url(#clip0_1243_20)">
<path d="M13.3475 7.46954C13.3475 9.41673 12.4829 10.8772 11.4105 11.6533C10.6922 12.1775 10.2974 13.0422 10.2974 13.9341V17.4405C10.2974 23.4795 11.4956 26.7272 11.4956 28.756C11.4956 30.0394 11.0224 31.9356 9.64711 31.9356C8.17311 31.9356 7.79523 30.0394 7.79523 28.756C7.79523 26.768 8.99355 23.9391 8.99355 17.6311V13.9341C8.99355 13.0422 8.59867 12.1775 7.88036 11.6533C6.81142 10.8771 5.94336 9.41673 5.94336 7.46954C5.94336 4.34792 7.7578 0.000732422 9.64711 0.000732422C11.5331 0.000732422 13.3475 4.34792 13.3475 7.46954Z" fill="#F25A38"/>
<path d="M19.8977 6.09743C19.9964 7.36043 20.0032 9.34843 19.3088 10.3731C18.4169 11.6871 18.0492 13.2906 18.0492 14.8769V18.6556C18.0492 23.5134 19.2475 26.7439 19.2475 28.8204C19.2475 30.1038 18.7709 32 17.3956 32C15.925 32 15.5438 30.1038 15.5438 28.8204C15.5438 26.7984 16.7421 24.0035 16.7421 18.887V14.6657C16.7421 13.1032 16.2212 11.6122 15.4178 10.2709C14.7846 9.21224 14.7948 7.30586 14.8969 6.0838L15.3804 0.245613C15.394 0.106051 15.5098 0.000550781 15.6459 0.000550781H15.6936C15.8399 0.000550781 15.9591 0.119676 15.9591 0.266113V6.91793C15.9591 7.08474 16.0953 7.22086 16.2621 7.22086C16.4289 7.22086 16.5651 7.08474 16.5651 6.91793V0.266051C16.5651 0.119676 16.6842 0.000488281 16.8306 0.000488281C16.9769 0.000488281 17.0995 0.119613 17.0995 0.266051V6.91786C17.0995 7.08468 17.2323 7.2208 17.4025 7.2208C17.5693 7.2208 17.7054 7.08468 17.7054 6.91786V0.266051C17.7054 0.119676 17.8246 0.000488281 17.971 0.000488281C18.1174 0.000488281 18.2365 0.119613 18.2365 0.266051V6.91786C18.2365 7.08468 18.3727 7.2208 18.5395 7.2208C18.7063 7.2208 18.8425 7.08468 18.8425 6.91786V0.266051C18.8425 0.119676 18.9616 0.000488281 19.1114 0.000488281H19.1557C19.2919 0.000488281 19.4076 0.106051 19.4213 0.245551L19.8977 6.09743Z" fill="#F25A38"/>
<path d="M27.0461 15.6496C27.0325 16.2318 26.7874 16.7526 26.4028 17.1305C26.0181 17.5083 25.4938 17.7398 24.9117 17.7398C24.5338 17.7398 24.2241 18.0462 24.2241 18.4241V22.4036C24.2241 23.6393 24.9526 27.5712 25.2488 30.3695C25.3373 31.2069 24.6769 31.9354 23.836 31.9354C23.0496 31.9354 22.4131 31.2988 22.4131 30.5158V0.623452C22.4131 0.126452 22.985 -0.179923 23.3867 0.116202C26.1678 2.17583 27.1755 10.7203 27.0461 15.6496Z" fill="#F25A38"/>
</g>
<defs>
<clipPath id="clip0_1243_20">
<rect width="32" height="32" fill="white" transform="translate(0.5)"/>
</clipPath>
</defs>
</svg>
