<svg width="32" height="32" viewBox="0 0 32 32" fill="none" xmlns="http://www.w3.org/2000/svg">
<g clip-path="url(#clip0_1250_106)">
<path d="M12.8475 7.46954C12.8475 9.41673 11.9829 10.8772 10.9105 11.6533C10.1922 12.1775 9.79736 13.0422 9.79736 13.9341V17.4405C9.79736 23.4795 10.9956 26.7272 10.9956 28.756C10.9956 30.0394 10.5224 31.9356 9.14711 31.9356C7.67311 31.9356 7.29523 30.0394 7.29523 28.756C7.29523 26.768 8.49355 23.9391 8.49355 17.6311V13.9341C8.49355 13.0422 8.09867 12.1775 7.38036 11.6533C6.31142 10.8771 5.44336 9.41673 5.44336 7.46954C5.44336 4.34792 7.2578 0.000732422 9.14711 0.000732422C11.0331 0.000732422 12.8475 4.34792 12.8475 7.46954Z" fill="white"/>
<path d="M19.3977 6.09743C19.4964 7.36043 19.5032 9.34843 18.8088 10.3731C17.9169 11.6871 17.5492 13.2906 17.5492 14.8769V18.6556C17.5492 23.5134 18.7475 26.7439 18.7475 28.8204C18.7475 30.1038 18.2709 32 16.8956 32C15.425 32 15.0438 30.1038 15.0438 28.8204C15.0438 26.7984 16.2421 24.0035 16.2421 18.887V14.6657C16.2421 13.1032 15.7212 11.6122 14.9178 10.2709C14.2846 9.21224 14.2948 7.30586 14.3969 6.0838L14.8804 0.245613C14.894 0.106051 15.0098 0.000550781 15.1459 0.000550781H15.1936C15.3399 0.000550781 15.4591 0.119676 15.4591 0.266113V6.91793C15.4591 7.08474 15.5953 7.22086 15.7621 7.22086C15.9289 7.22086 16.0651 7.08474 16.0651 6.91793V0.266051C16.0651 0.119676 16.1842 0.000488281 16.3306 0.000488281C16.4769 0.000488281 16.5995 0.119613 16.5995 0.266051V6.91786C16.5995 7.08468 16.7323 7.2208 16.9025 7.2208C17.0693 7.2208 17.2054 7.08468 17.2054 6.91786V0.266051C17.2054 0.119676 17.3246 0.000488281 17.471 0.000488281C17.6174 0.000488281 17.7365 0.119613 17.7365 0.266051V6.91786C17.7365 7.08468 17.8727 7.2208 18.0395 7.2208C18.2063 7.2208 18.3425 7.08468 18.3425 6.91786V0.266051C18.3425 0.119676 18.4616 0.000488281 18.6114 0.000488281H18.6557C18.7919 0.000488281 18.9076 0.106051 18.9213 0.245551L19.3977 6.09743Z" fill="white"/>
<path d="M26.5461 15.6496C26.5325 16.2318 26.2874 16.7526 25.9028 17.1305C25.5181 17.5083 24.9938 17.7398 24.4117 17.7398C24.0338 17.7398 23.7241 18.0462 23.7241 18.4241V22.4036C23.7241 23.6393 24.4526 27.5712 24.7488 30.3695C24.8373 31.2069 24.1769 31.9354 23.336 31.9354C22.5496 31.9354 21.9131 31.2988 21.9131 30.5158V0.623452C21.9131 0.126452 22.485 -0.179923 22.8867 0.116202C25.6678 2.17583 26.6755 10.7203 26.5461 15.6496Z" fill="white"/>
</g>
<defs>
<clipPath id="clip0_1250_106">
<rect width="32" height="32" fill="white"/>
</clipPath>
</defs>
</svg>
