<svg width="33" height="32" viewBox="0 0 33 32" fill="none" xmlns="http://www.w3.org/2000/svg">
<g clip-path="url(#clip0_1243_43)">
<path d="M29.6384 4.19531L26.9717 1.52863C26.7112 1.26819 26.2894 1.26819 26.029 1.52863C25.7686 1.78906 25.7686 2.21094 26.029 2.47131L28.2243 4.66663L26.029 6.86194C25.904 6.98694 25.8337 7.15619 25.8337 7.33331V9.33331C25.8337 10.8041 27.0297 12 28.5004 12V23.3333C28.5004 23.7011 28.2016 24 27.8337 24C27.4659 24 27.167 23.7012 27.167 23.3333V22C27.167 20.8971 26.2699 20 25.167 20H24.5004V2.66669C24.5004 1.19594 23.3044 0 21.8337 0H8.50037C7.02968 0 5.83368 1.19594 5.83368 2.66669V26.6667C4.36299 26.6667 3.16699 27.8626 3.16699 29.3334V31.3334C3.16699 31.7019 3.46518 32.0001 3.83368 32.0001H26.5004C26.8689 32.0001 27.1671 31.7019 27.1671 31.3334V29.3334C27.1671 27.8627 25.9711 26.6667 24.5004 26.6667V21.3334H25.1671C25.5349 21.3334 25.8337 21.6322 25.8337 22.0001V23.3334C25.8337 24.4363 26.7309 25.3334 27.8337 25.3334C28.9366 25.3334 29.8337 24.4363 29.8337 23.3334V4.66669C29.8337 4.48956 29.7634 4.32031 29.6384 4.19531ZM21.8337 11.3457C21.8337 11.7142 21.5355 12.0124 21.167 12.0124H9.16699C8.79849 12.0124 8.5003 11.7142 8.5003 11.3457V3.33331C8.5003 2.96481 8.79849 2.66663 9.16699 2.66663H21.167C21.5355 2.66663 21.8337 2.96481 21.8337 3.33331V11.3457Z" fill="#F25A38"/>
</g>
<defs>
<clipPath id="clip0_1243_43">
<rect width="32" height="32" fill="white" transform="translate(0.5)"/>
</clipPath>
</defs>
</svg>
