<svg width="32" height="32" viewBox="0 0 32 32" fill="none" xmlns="http://www.w3.org/2000/svg">
<g clip-path="url(#clip0_1250_112)">
<path d="M29.1384 4.19531L26.4717 1.52863C26.2112 1.26819 25.7894 1.26819 25.529 1.52863C25.2686 1.78906 25.2686 2.21094 25.529 2.47131L27.7243 4.66663L25.529 6.86194C25.404 6.98694 25.3337 7.15619 25.3337 7.33331V9.33331C25.3337 10.8041 26.5297 12 28.0004 12V23.3333C28.0004 23.7011 27.7016 24 27.3337 24C26.9659 24 26.667 23.7012 26.667 23.3333V22C26.667 20.8971 25.7699 20 24.667 20H24.0004V2.66669C24.0004 1.19594 22.8044 0 21.3337 0H8.00037C6.52968 0 5.33368 1.19594 5.33368 2.66669V26.6667C3.86299 26.6667 2.66699 27.8626 2.66699 29.3334V31.3334C2.66699 31.7019 2.96518 32.0001 3.33368 32.0001H26.0004C26.3689 32.0001 26.6671 31.7019 26.6671 31.3334V29.3334C26.6671 27.8627 25.4711 26.6667 24.0004 26.6667V21.3334H24.6671C25.0349 21.3334 25.3337 21.6322 25.3337 22.0001V23.3334C25.3337 24.4363 26.2309 25.3334 27.3337 25.3334C28.4366 25.3334 29.3337 24.4363 29.3337 23.3334V4.66669C29.3337 4.48956 29.2634 4.32031 29.1384 4.19531ZM21.3337 11.3457C21.3337 11.7142 21.0355 12.0124 20.667 12.0124H8.66699C8.29849 12.0124 8.0003 11.7142 8.0003 11.3457V3.33331C8.0003 2.96481 8.29849 2.66663 8.66699 2.66663H20.667C21.0355 2.66663 21.3337 2.96481 21.3337 3.33331V11.3457Z" fill="white"/>
</g>
<defs>
<clipPath id="clip0_1250_112">
<rect width="32" height="32" fill="white"/>
</clipPath>
</defs>
</svg>
