<svg width="33" height="32" viewBox="0 0 33 32" fill="none" xmlns="http://www.w3.org/2000/svg">
<g clip-path="url(#clip0_1243_57)">
<path d="M17.0803 3.69263C17.1077 4.37336 17.1349 5.05409 17.1624 5.73482C16.6324 5.73482 16.3675 5.73482 15.8376 5.73482C15.8649 5.05409 15.8923 4.37336 15.9196 3.69263C14.8449 3.69263 13.7702 3.69263 12.6955 3.69263C10.5351 11.8976 8.37425 20.1023 6.21387 28.3075C9.11948 28.3075 12.0251 28.3075 14.9306 28.3075C14.958 27.6266 14.9853 26.9459 15.0127 26.2653C16.0042 26.2653 16.9957 26.2653 17.9872 26.2653C18.0147 26.946 18.042 27.6266 18.0693 28.3075C20.9749 28.3075 23.8804 28.3075 26.786 28.3075C24.6256 20.1025 22.4649 11.8977 20.3044 3.69263C19.2298 3.69263 18.1551 3.69263 17.0803 3.69263ZM15.7145 8.79256C16.2381 8.79256 16.7616 8.79228 17.2852 8.79242C17.3613 10.6853 17.4372 12.5783 17.5134 14.4711C16.8377 14.4711 16.1621 14.4711 15.4864 14.4711C15.5627 12.5784 15.6386 10.6854 15.7145 8.79256ZM15.1355 23.2074C15.2114 21.3146 15.2876 19.4218 15.3636 17.5289C16.1212 17.5289 16.8787 17.5288 17.6361 17.5288C17.7122 19.4216 17.7883 21.3146 17.8643 23.2074C16.9548 23.2074 16.0451 23.2074 15.1355 23.2074Z" fill="#F25A38"/>
<path d="M22.4179 3.69263C21.9789 3.69263 21.7593 3.69263 21.3203 3.69263C24.0579 11.8976 26.7949 20.1025 29.5327 28.3075C30.5218 28.3075 31.511 28.3075 32.5001 28.3075C29.1395 20.1023 25.7787 11.8976 22.4179 3.69263Z" fill="#F25A38"/>
<path d="M10.5822 3.69263C7.22138 11.8977 3.86051 20.1023 0.5 28.3075C1.4892 28.3075 2.47832 28.3075 3.46752 28.3075C6.20492 20.1025 8.94225 11.8977 11.6798 3.69263C11.2408 3.69263 11.0212 3.69263 10.5822 3.69263Z" fill="#F25A38"/>
</g>
<defs>
<clipPath id="clip0_1243_57">
<rect width="32" height="32" fill="white" transform="translate(0.5)"/>
</clipPath>
</defs>
</svg>
