<svg width="32" height="32" viewBox="0 0 32 32" fill="none" xmlns="http://www.w3.org/2000/svg">
<path d="M16.5803 3.69263C16.6077 4.37336 16.6349 5.05409 16.6624 5.73482C16.1324 5.73482 15.8675 5.73482 15.3376 5.73482C15.3649 5.05409 15.3923 4.37336 15.4196 3.69263C14.3449 3.69263 13.2702 3.69263 12.1955 3.69263C10.0351 11.8976 7.87425 20.1023 5.71387 28.3075C8.61948 28.3075 11.5251 28.3075 14.4306 28.3075C14.458 27.6266 14.4853 26.9459 14.5127 26.2653C15.5042 26.2653 16.4957 26.2653 17.4872 26.2653C17.5147 26.946 17.542 27.6266 17.5693 28.3075C20.4749 28.3075 23.3804 28.3075 26.286 28.3075C24.1256 20.1025 21.9649 11.8977 19.8044 3.69263C18.7298 3.69263 17.6551 3.69263 16.5803 3.69263ZM15.2145 8.79256C15.7381 8.79256 16.2616 8.79228 16.7852 8.79242C16.8613 10.6853 16.9372 12.5783 17.0134 14.4711C16.3377 14.4711 15.6621 14.4711 14.9864 14.4711C15.0627 12.5784 15.1386 10.6854 15.2145 8.79256ZM14.6355 23.2074C14.7114 21.3146 14.7876 19.4218 14.8636 17.5289C15.6212 17.5289 16.3787 17.5288 17.1361 17.5288C17.2122 19.4216 17.2883 21.3146 17.3643 23.2074C16.4548 23.2074 15.5451 23.2074 14.6355 23.2074Z" fill="white"/>
<path d="M21.9179 3.69263C21.4789 3.69263 21.2593 3.69263 20.8203 3.69263C23.5579 11.8976 26.2949 20.1025 29.0327 28.3075C30.0218 28.3075 31.011 28.3075 32.0001 28.3075C28.6395 20.1023 25.2787 11.8976 21.9179 3.69263Z" fill="white"/>
<path d="M10.0822 3.69263C6.72138 11.8977 3.36051 20.1023 0 28.3075C0.989197 28.3075 1.97832 28.3075 2.96752 28.3075C5.70492 20.1025 8.44225 11.8977 11.1798 3.69263C10.7408 3.69263 10.5212 3.69263 10.0822 3.69263Z" fill="white"/>
</svg>
