<svg width="32" height="32" viewBox="0 0 32 32" fill="none" xmlns="http://www.w3.org/2000/svg">
<g clip-path="url(#clip0_1250_93)">
<path d="M8.5 0.9375C8.5 0.419625 8.08025 0 7.5625 0H5.6875C5.16975 0 4.75 0.419625 4.75 0.9375V3.75H8.5V0.9375Z" fill="white"/>
<path d="M17.875 0.9375C17.875 0.419625 17.4553 0 16.9375 0H15.0625C14.5447 0 14.125 0.419625 14.125 0.9375V3.75H17.875V0.9375Z" fill="white"/>
<path d="M27.25 0.9375C27.25 0.419625 26.8303 0 26.3125 0H24.4375C23.9197 0 23.5 0.419625 23.5 0.9375V3.75H27.25V0.9375Z" fill="white"/>
<path d="M29.125 10.4375C29.125 9.25738 28.5656 8.13675 27.6281 7.44006L27.25 7.159V5.625H23.5V7.159L23.1219 7.44006C22.1844 8.13675 21.625 9.25738 21.625 10.4375V13.25H29.125V10.4375Z" fill="white"/>
<path d="M19.75 10.4375C19.75 9.25738 19.1906 8.13675 18.2531 7.44006L17.875 7.159V5.625H14.125V7.159L13.7469 7.44006C12.8094 8.13675 12.25 9.25738 12.25 10.4375V13.25H19.75V10.4375Z" fill="white"/>
<path d="M10.375 10.4375C10.375 9.25738 9.81563 8.13675 8.87813 7.44006L8.5 7.159V5.625H4.75V7.159L4.37187 7.44006C3.43437 8.13675 2.875 9.25738 2.875 10.4375V13.25H10.375V10.4375Z" fill="white"/>
<path d="M31.0625 15.125H0.9375C0.412437 15.125 0 15.5374 0 16.0625V31.0625C0 31.5874 0.412437 32 0.9375 32H31.0625C31.5876 32 32 31.5874 32 31.0625V16.0625C32 15.5374 31.5876 15.125 31.0625 15.125ZM9.4375 24.5C7.88119 24.5 6.625 23.2437 6.625 21.6875C6.625 20.1312 7.88119 18.875 9.4375 18.875H22.5625C24.1188 18.875 25.375 20.1312 25.375 21.6875C25.375 23.2437 24.1188 24.5 22.5625 24.5H9.4375Z" fill="white"/>
<path d="M10.375 20.75V22.625H9.4375C8.91244 22.625 8.5 22.2124 8.5 21.6875C8.5 21.1624 8.91244 20.75 9.4375 20.75H10.375Z" fill="white"/>
<path d="M22.5625 22.625H21.625V20.75H22.5625C23.0876 20.75 23.5 21.1624 23.5 21.6875C23.5 22.2124 23.0876 22.625 22.5625 22.625Z" fill="white"/>
<path d="M12.25 20.75H19.75V22.625H12.25V20.75Z" fill="white"/>
</g>
<defs>
<clipPath id="clip0_1250_93">
<rect width="32" height="32" fill="white"/>
</clipPath>
</defs>
</svg>
