<svg width="33" height="32" viewBox="0 0 33 32" fill="none" xmlns="http://www.w3.org/2000/svg">
<g clip-path="url(#clip0_1243_26)">
<path d="M9 0.9375C9 0.419625 8.58025 0 8.0625 0H6.1875C5.66975 0 5.25 0.419625 5.25 0.9375V3.75H9V0.9375Z" fill="#F25A38"/>
<path d="M18.375 0.9375C18.375 0.419625 17.9553 0 17.4375 0H15.5625C15.0447 0 14.625 0.419625 14.625 0.9375V3.75H18.375V0.9375Z" fill="#F25A38"/>
<path d="M27.75 0.9375C27.75 0.419625 27.3303 0 26.8125 0H24.9375C24.4197 0 24 0.419625 24 0.9375V3.75H27.75V0.9375Z" fill="#F25A38"/>
<path d="M29.625 10.4375C29.625 9.25738 29.0656 8.13675 28.1281 7.44006L27.75 7.159V5.625H24V7.159L23.6219 7.44006C22.6844 8.13675 22.125 9.25738 22.125 10.4375V13.25H29.625V10.4375Z" fill="#F25A38"/>
<path d="M20.25 10.4375C20.25 9.25738 19.6906 8.13675 18.7531 7.44006L18.375 7.159V5.625H14.625V7.159L14.2469 7.44006C13.3094 8.13675 12.75 9.25738 12.75 10.4375V13.25H20.25V10.4375Z" fill="#F25A38"/>
<path d="M10.875 10.4375C10.875 9.25738 10.3156 8.13675 9.37813 7.44006L9 7.159V5.625H5.25V7.159L4.87187 7.44006C3.93437 8.13675 3.375 9.25738 3.375 10.4375V13.25H10.875V10.4375Z" fill="#F25A38"/>
<path d="M31.5625 15.125H1.4375C0.912437 15.125 0.5 15.5374 0.5 16.0625V31.0625C0.5 31.5874 0.912437 32 1.4375 32H31.5625C32.0876 32 32.5 31.5874 32.5 31.0625V16.0625C32.5 15.5374 32.0876 15.125 31.5625 15.125ZM9.9375 24.5C8.38119 24.5 7.125 23.2437 7.125 21.6875C7.125 20.1312 8.38119 18.875 9.9375 18.875H23.0625C24.6188 18.875 25.875 20.1312 25.875 21.6875C25.875 23.2437 24.6188 24.5 23.0625 24.5H9.9375Z" fill="#F25A38"/>
<path d="M10.875 20.75V22.625H9.9375C9.41244 22.625 9 22.2124 9 21.6875C9 21.1624 9.41244 20.75 9.9375 20.75H10.875Z" fill="#F25A38"/>
<path d="M23.0625 22.625H22.125V20.75H23.0625C23.5876 20.75 24 21.1624 24 21.6875C24 22.2124 23.5876 22.625 23.0625 22.625Z" fill="#F25A38"/>
<path d="M12.75 20.75H20.25V22.625H12.75V20.75Z" fill="#F25A38"/>
</g>
<defs>
<clipPath id="clip0_1243_26">
<rect width="32" height="32" fill="white" transform="translate(0.5)"/>
</clipPath>
</defs>
</svg>
