<svg width="33" height="32" viewBox="0 0 33 32" fill="none" xmlns="http://www.w3.org/2000/svg">
<g clip-path="url(#clip0_1243_47)">
<path d="M23.0379 15.785C22.9629 15.4682 22.7303 15.2137 22.4218 15.1112L17.8222 13.5777L21.0888 7.04446C21.2939 6.6334 21.1712 6.13353 20.7985 5.86434C20.4241 5.59609 19.9114 5.6364 19.5873 5.96228L10.2123 15.3373C9.98249 15.5671 9.88817 15.8994 9.96236 16.2153C10.0374 16.532 10.27 16.7866 10.5785 16.8891L15.1781 18.4226L11.9115 24.9558C11.7064 25.3668 11.8291 25.8667 12.2017 26.1359C12.5749 26.4033 13.0866 26.3642 13.413 26.038L22.788 16.663C23.0178 16.4332 23.1121 16.1008 23.0379 15.785Z" fill="#F25A38"/>
<path d="M16.5 0C11.7419 0 7.24756 2.21287 4.25 5.78306V4.75C4.25 4.23181 3.83069 3.8125 3.3125 3.8125C2.79431 3.8125 2.375 4.23181 2.375 4.75V8.73256C2.375 9.62725 3.53063 9.75531 3.3125 9.67006C3.33175 9.67006 3.35094 9.66913 3.37019 9.66825L7.12019 9.43569C7.63744 9.40362 8.03025 8.95869 7.99819 8.44231C7.96613 7.92594 7.51481 7.53687 7.00481 7.56431L5.10519 7.68244C7.73644 4.10319 11.9938 1.875 16.5 1.875C24.2545 1.875 30.625 8.2455 30.625 16C30.625 16.5182 31.0443 16.9375 31.5625 16.9375C32.0807 16.9375 32.5 16.5182 32.5 16C32.5 7.21187 25.2881 0 16.5 0Z" fill="#F25A38"/>
<path d="M29.6298 22.3318L25.8798 22.5643C25.3626 22.5964 24.9697 23.0413 25.0018 23.5577C25.0339 24.0741 25.4953 24.4678 25.9952 24.4357L27.8948 24.3176C25.2636 27.8968 21.0062 30.125 16.5 30.125C8.7455 30.125 2.375 23.7545 2.375 16C2.375 15.4818 1.95569 15.0625 1.4375 15.0625C0.919312 15.0625 0.5 15.4818 0.5 16C0.5 24.7881 7.71187 32 16.5 32C21.2581 32 25.7524 29.7871 28.75 26.2169V27.25C28.75 27.7682 29.1693 28.1875 29.6875 28.1875C30.2057 28.1875 30.625 27.7682 30.625 27.25V23.2674C30.625 22.7524 30.1312 22.3035 29.6298 22.3318Z" fill="#F25A38"/>
</g>
<defs>
<clipPath id="clip0_1243_47">
<rect width="32" height="32" fill="white" transform="translate(0.5)"/>
</clipPath>
</defs>
</svg>
