<svg width="32" height="32" viewBox="0 0 32 32" fill="none" xmlns="http://www.w3.org/2000/svg">
<g clip-path="url(#clip0_1250_83)">
<path d="M22.5379 15.785C22.4629 15.4682 22.2303 15.2137 21.9218 15.1112L17.3222 13.5777L20.5888 7.04446C20.7939 6.6334 20.6712 6.13353 20.2985 5.86434C19.9241 5.59609 19.4114 5.6364 19.0873 5.96228L9.7123 15.3373C9.48249 15.5671 9.38817 15.8994 9.46236 16.2153C9.53742 16.532 9.76999 16.7866 10.0785 16.8891L14.6781 18.4226L11.4115 24.9558C11.2064 25.3668 11.3291 25.8667 11.7017 26.1359C12.0749 26.4033 12.5866 26.3642 12.913 26.038L22.288 16.663C22.5178 16.4332 22.6121 16.1008 22.5379 15.785Z" fill="white"/>
<path d="M16 0C11.2419 0 6.74756 2.21287 3.75 5.78306V4.75C3.75 4.23181 3.33069 3.8125 2.8125 3.8125C2.29431 3.8125 1.875 4.23181 1.875 4.75V8.73256C1.875 9.62725 3.03063 9.75531 2.8125 9.67006C2.83175 9.67006 2.85094 9.66913 2.87019 9.66825L6.62019 9.43569C7.13744 9.40362 7.53025 8.95869 7.49819 8.44231C7.46613 7.92594 7.01481 7.53687 6.50481 7.56431L4.60519 7.68244C7.23644 4.10319 11.4938 1.875 16 1.875C23.7545 1.875 30.125 8.2455 30.125 16C30.125 16.5182 30.5443 16.9375 31.0625 16.9375C31.5807 16.9375 32 16.5182 32 16C32 7.21187 24.7881 0 16 0Z" fill="white"/>
<path d="M29.1298 22.3318L25.3798 22.5643C24.8626 22.5964 24.4697 23.0413 24.5018 23.5577C24.5339 24.0741 24.9953 24.4678 25.4952 24.4357L27.3948 24.3176C24.7636 27.8968 20.5062 30.125 16 30.125C8.2455 30.125 1.875 23.7545 1.875 16C1.875 15.4818 1.45569 15.0625 0.9375 15.0625C0.419312 15.0625 0 15.4818 0 16C0 24.7881 7.21187 32 16 32C20.7581 32 25.2524 29.7871 28.25 26.2169V27.25C28.25 27.7682 28.6693 28.1875 29.1875 28.1875C29.7057 28.1875 30.125 27.7682 30.125 27.25V23.2674C30.125 22.7524 29.6312 22.3035 29.1298 22.3318Z" fill="white"/>
</g>
<defs>
<clipPath id="clip0_1250_83">
<rect width="32" height="32" fill="white"/>
</clipPath>
</defs>
</svg>
