<svg width="132" height="132" viewBox="0 0 132 132" fill="none" xmlns="http://www.w3.org/2000/svg">
<circle cx="66" cy="66" r="66" fill="#F25A38"/>
<path d="M36.0488 96.8595C33.9974 98.965 30.6274 99.0091 28.5217 96.9579C26.4159 94.9068 26.3719 91.5366 28.4233 89.4311L46.2217 71.16C48.2731 69.0546 51.6431 69.0105 53.7488 71.0616C55.8546 73.1127 55.8989 76.483 53.8475 78.5887L36.0488 96.8595Z" fill="#FFD038"/>
<path d="M61.81 46.3253C59.7586 48.431 56.3886 48.4751 54.2829 46.424C52.1772 44.3726 52.1331 41.0024 54.1845 38.8966L67.2957 25.4373C69.3471 23.3316 72.7171 23.2875 74.8228 25.3389C76.9285 27.3903 76.9726 30.7602 74.9215 32.866L61.81 46.3253Z" fill="#FFD038"/>
<path d="M91.7463 110.478C89.6949 112.583 86.3249 112.627 84.2192 110.576C82.1134 108.525 82.0694 105.155 84.1208 103.049L97.2323 89.59C99.2834 87.4845 102.653 87.4402 104.759 89.4913C106.865 91.5427 106.909 94.9126 104.858 97.0184L91.7463 110.478Z" fill="white"/>
<path d="M77.7018 79.7418C75.6505 81.8473 72.2805 81.8913 70.1748 79.8405C68.069 77.7891 68.0249 74.4189 70.0763 72.3134L83.1876 58.8541C85.2389 56.7484 88.6089 56.7043 90.7147 58.7554C92.8204 60.8065 92.8645 64.1768 90.8133 66.2825L77.7018 79.7418Z" fill="white"/>
<path d="M57.4723 28.854C55.4212 30.9597 52.051 31.0038 49.9453 28.9524C47.8395 26.9013 47.7955 23.5311 49.8468 21.4253L55.4188 15.7055C57.4702 13.5998 60.8402 13.5557 62.9459 15.6069C65.0517 17.6582 65.0957 21.0285 63.0446 23.1342L57.4723 28.854Z" fill="white"/>
<path d="M72.4828 60.8628C70.4315 62.9685 67.0615 63.0123 64.9558 60.9614C62.85 58.9101 62.806 55.5401 64.8573 53.4344L70.4293 47.7143C72.4807 45.6086 75.8507 45.5645 77.9564 47.6159C80.0622 49.6673 80.1062 53.0372 78.0549 55.143L72.4828 60.8628Z" fill="#0B7BB5"/>
<path d="M68.0099 112.921C65.9586 115.026 62.5886 115.071 60.4829 113.02C58.3771 110.968 58.3331 107.598 60.3844 105.492L76.9377 88.4998C78.9888 86.3943 82.3588 86.3502 84.4648 88.4013C86.5705 90.4527 86.6146 93.8227 84.5632 95.9284L68.0099 112.921Z" fill="#0B7BB5"/>
<path d="M53.5248 79.0567C51.4735 81.1621 48.1035 81.2062 45.9977 79.1554C43.892 77.104 43.8479 73.7338 45.8993 71.6283L54.0457 63.2655C56.0971 61.16 59.4671 61.116 61.5728 63.1671C63.6786 65.2184 63.7226 68.5884 61.6715 70.6941L53.5248 79.0567Z" fill="#0B7BB5"/>
<path d="M53.7478 71.0615C51.8788 69.2408 49.0178 69.0798 46.963 70.5372L45.8993 71.6297C43.8479 73.7351 43.892 77.1054 45.9977 79.1565C47.867 80.9775 50.7275 81.1387 52.7826 79.6808L53.8465 78.5886C55.8976 76.4829 55.8536 73.1129 53.7478 71.0615Z" fill="#CE4E2A"/>
<path d="M84.1772 96.501C82.1258 98.6065 78.7558 98.6505 76.6501 96.5997C74.5444 94.5483 74.5003 91.1781 76.5517 89.0726L92.0589 73.1537C94.1103 71.0482 97.4803 71.0042 99.586 73.055C101.692 75.1064 101.736 78.4764 99.6847 80.5821L84.1772 96.501Z" fill="#FFD038"/>
<path d="M84.5624 95.9283C86.6138 93.8226 86.5694 90.4524 84.4637 88.4012C82.6347 86.6195 79.8543 86.4232 77.81 87.7811L76.5519 89.0731C74.5002 91.1785 74.5443 94.5485 76.6503 96.5999C78.4792 98.3816 81.2599 98.5779 83.3039 97.22L84.5624 95.9283Z" fill="#30302C"/>
</svg>
