<svg width="132" height="132" viewBox="0 0 132 132" fill="none" xmlns="http://www.w3.org/2000/svg">
<circle cx="66" cy="66" r="66" fill="#FFD038"/>
<path d="M78.7403 58.9926C81.829 55.9039 86.8368 55.9035 89.9255 58.9926C93.0142 62.0813 93.0142 67.0895 89.9255 70.1778L72.8399 87.2634C69.7508 90.3525 64.743 90.3521 61.6547 87.2634C58.5656 84.1743 58.5656 79.1669 61.6547 76.0782L78.7403 58.9926Z" fill="white"/>
<path d="M100.487 54.7178C103.576 51.6287 108.584 51.6283 111.672 54.7174C114.761 57.8061 114.761 62.8143 111.672 65.903L72.8399 104.735C69.7508 107.825 64.743 107.824 61.6547 104.735C58.5656 101.646 58.5656 96.6389 61.6547 93.5502L100.487 54.7178Z" fill="#F25A38"/>
<path d="M34.008 54.7178C30.9189 51.6287 25.911 51.6283 22.8223 54.7174C19.7336 57.8061 19.7336 62.8143 22.8227 65.903L61.6548 104.735C64.7439 107.824 69.7517 107.824 72.84 104.735C75.9291 101.646 75.9291 96.6385 72.84 93.5498L34.008 54.7178Z" fill="white"/>
<path d="M54.8079 58.0476C51.7192 54.9589 46.7114 54.9585 43.6227 58.0476C40.534 61.1363 40.534 66.1445 43.6227 69.2328L61.6538 87.2639C64.7429 90.3534 69.7503 90.353 72.839 87.2639C75.9281 84.1748 75.9281 79.1675 72.839 76.0788L54.8079 58.0476Z" fill="#0B7BB5"/>
<path d="M78.7403 41.7066C81.829 38.6179 86.8368 38.6175 89.9255 41.7066C93.0142 44.7953 93.0142 49.8034 89.9255 52.8918L72.8399 69.9777C69.7508 73.0668 64.743 73.0665 61.6547 69.9777C58.5656 66.8886 58.5656 61.8812 61.6547 58.7922L78.7403 41.7066Z" fill="#0B7BB5"/>
<path d="M54.8079 40.763C51.7192 37.6743 46.7114 37.6739 43.6227 40.763C40.534 43.8517 40.534 48.8598 43.6227 51.9482L61.6538 69.9797C64.7429 73.0691 69.7503 73.0684 72.839 69.9797C75.9281 66.8906 75.9281 61.8832 72.839 58.7945L54.8079 40.763Z" fill="#F25A38"/>
<path d="M61.6546 69.9786C64.7433 73.0681 69.7515 73.0681 72.8398 69.9786C75.9285 66.8899 75.9285 61.8825 72.8395 58.7938L67.2472 53.2004L61.6542 58.7938C58.5655 61.8825 58.5659 66.8903 61.6546 69.9786Z" fill="#009FDF"/>
</svg>
