<svg width="132" height="132" viewBox="0 0 132 132" fill="none" xmlns="http://www.w3.org/2000/svg">
<circle cx="66" cy="66" r="66" fill="#0B7BB5"/>
<path d="M107.082 60.7651C111.303 59.145 113.412 54.4095 111.792 50.188C110.171 45.9668 105.435 43.8583 101.214 45.4787L28.8632 73.2513C24.6417 74.8718 22.5335 79.6076 24.154 83.8287C25.7744 88.0502 30.5098 90.1588 34.731 88.538L107.082 60.7651Z" fill="white"/>
<path d="M90.7459 35.1286C92.5851 30.9978 90.7274 26.1585 86.5966 24.3193C82.4658 22.4801 77.6265 24.3378 75.7873 28.4686L44.2643 99.2699C42.4254 103.401 44.2831 108.24 48.4139 110.079C52.5447 111.918 57.384 110.061 59.2229 105.93L90.7459 35.1286Z" fill="#FCD71A"/>
<path d="M99.5739 90.4408C103.705 92.2801 108.544 90.4223 110.383 86.2915C112.222 82.1607 110.365 77.3215 106.234 75.4822L35.4327 43.9593C31.3019 42.12 26.4623 43.9781 24.6231 48.1086C22.7841 52.2397 24.6419 57.0787 28.7727 58.9179L99.5739 90.4408Z" fill="#F25A38"/>
<path d="M61.0741 73.2995L82.2292 82.7184L73.9306 61.0994L52.7758 51.6809L61.0741 73.2995Z" fill="#DF5027"/>
<path d="M46.1177 66.6391L67.2725 76.0577L88.8914 67.7591L67.7366 58.3402L46.1177 66.6391Z" fill="#939598"/>
<path d="M51.9873 81.9266L73.6062 73.6276L83.0248 52.4731L61.4058 60.7721L51.9873 81.9266Z" fill="#2A491B"/>
<path d="M56.6807 71.371L71.6387 78.0304L78.2981 63.0725L63.3402 56.4131L56.6807 71.371Z" fill="#6E786C"/>
<path d="M67.2724 76.0573L73.6043 73.6272L76.3629 67.4307L73.9327 61.0987L67.7365 58.3402L61.4046 60.771L58.6454 66.9669L61.0762 73.2988L67.2724 76.0573Z" fill="#394B39"/>
<path d="M55.9477 28.5316C50.9625 28.5316 46.9211 32.573 46.9211 37.5582C46.9211 42.5435 50.9625 46.5851 55.9477 46.5851C60.933 46.5851 64.9743 42.5438 64.9743 37.5582C64.9743 32.5727 60.933 28.5316 55.9477 28.5316Z" fill="white"/>
</svg>
