<svg width="227" height="286" viewBox="0 0 227 286" fill="none" xmlns="http://www.w3.org/2000/svg">
<path d="M25.9965 235.508C20.1591 241.499 10.5695 241.625 4.5774 235.788C-1.41469 229.952 -1.54008 220.361 4.29733 214.37L54.9447 162.378C60.7822 156.386 70.3718 156.261 76.3639 162.098C82.3559 167.934 82.4821 177.525 76.6447 183.517L25.9965 235.508Z" fill="#FFD038"/>
<path d="M99.307 91.7084C93.4696 97.7004 83.88 97.8258 77.8879 91.9892C71.8959 86.1518 71.7705 76.5614 77.6079 70.5693L114.917 32.2695C120.755 26.2775 130.344 26.1521 136.336 31.9895C142.328 37.8269 142.454 47.4165 136.617 53.4086L99.307 91.7084Z" fill="#FFD038"/>
<path d="M184.495 274.261C178.657 280.253 169.068 280.379 163.075 274.542C157.083 268.705 156.958 259.115 162.795 253.123L200.105 214.823C205.942 208.832 215.532 208.706 221.524 214.542C227.516 220.38 227.641 229.969 221.805 235.961L184.495 274.261Z" fill="#F25A38"/>
<path d="M144.52 186.8C138.683 192.792 129.093 192.917 123.101 187.081C117.109 181.244 116.983 171.653 122.821 165.662L160.13 127.362C165.968 121.37 175.557 121.245 181.549 127.081C187.541 132.918 187.667 142.508 181.83 148.5L144.52 186.8Z" fill="#F25A38"/>
<path d="M86.9594 41.9928C81.1227 47.9848 71.5324 48.1102 65.5403 42.2728C59.5482 36.4362 59.4228 26.8458 65.2602 20.8537L81.1159 4.5775C86.9533 -1.41459 96.543 -1.53998 102.535 4.29667C108.527 10.1341 108.653 19.7244 102.816 25.7165L86.9594 41.9928Z" fill="#F25A38"/>
<path d="M129.672 133.079C123.835 139.071 114.245 139.196 108.253 133.36C102.261 127.522 102.136 117.933 107.973 111.941L123.829 95.6636C129.666 89.6715 139.256 89.5461 145.248 95.3835C151.24 101.221 151.365 110.811 145.528 116.803L129.672 133.079Z" fill="#0B7BB5"/>
<path d="M116.942 281.215C111.104 287.207 101.515 287.332 95.5227 281.496C89.5306 275.658 89.4052 266.069 95.2426 260.077L142.347 211.722C148.183 205.731 157.773 205.606 163.766 211.442C169.758 217.28 169.883 226.869 164.046 232.861L116.942 281.215Z" fill="#0B7BB5"/>
<path d="M75.728 184.851C69.8905 190.842 60.3009 190.968 54.3088 185.132C48.3168 179.295 48.1914 169.704 54.0288 163.713L77.2102 139.916C83.0476 133.924 92.6372 133.799 98.6293 139.636C104.621 145.473 104.747 155.063 98.9101 161.055L75.728 184.851Z" fill="#0B7BB5"/>
<path d="M76.3625 162.098C71.0439 156.917 62.9028 156.459 57.0556 160.606L54.0288 163.715C48.1914 169.706 48.3168 179.296 54.3088 185.133C59.6281 190.315 67.7678 190.774 73.6157 186.625L76.6433 183.517C82.4799 177.525 82.3546 167.935 76.3625 162.098Z" fill="#CE4E2A"/>
<path d="M162.949 234.491C157.111 240.482 147.522 240.608 141.53 234.772C135.537 228.934 135.412 219.344 141.249 213.353L185.377 168.054C191.214 162.062 200.804 161.937 206.796 167.773C212.788 173.61 212.914 183.2 207.077 189.192L162.949 234.491Z" fill="#FFD038"/>
<path d="M164.045 232.859C169.882 226.867 169.756 217.277 163.764 211.44C158.559 206.37 150.647 205.812 144.83 209.676L141.25 213.352C135.412 219.343 135.537 228.933 141.53 234.77C146.735 239.84 154.647 240.399 160.464 236.535L164.045 232.859Z" fill="#30302C"/>
</svg>
